<?xml version="1.0" encoding="UTF-8"?>
<svg id="shapes" xmlns="http://www.w3.org/2000/svg" xmlns:xlink="http://www.w3.org/1999/xlink" version="1.1" viewBox="0 0 960 660">
  <!-- Generator: Adobe Illustrator 29.0.1, SVG Export Plug-In . SVG Version: 2.1.0 Build 192)  -->
  <defs>
    <style>
      .st0 {
        fill: none;
        stroke: #f4902c;
        stroke-miterlimit: 10;
      }

      .st1 {
        fill: url(#linear-gradient2);
      }

      .st2 {
        fill: url(#linear-gradient1);
      }

      .st3 {
        fill: url(#linear-gradient);
      }

      .st4 {
        fill: #ffdd17;
      }

      .st5 {
        fill: #262626;
      }
    </style>
    <linearGradient id="linear-gradient" x1="94.4" y1="188.5" x2="876.3" y2="188.5" gradientTransform="translate(0 660) scale(1 -1)" gradientUnits="userSpaceOnUse">
      <stop offset="0" stop-color="#fff"/>
      <stop offset=".5" stop-color="#fcfcfc"/>
      <stop offset=".8" stop-color="#f4f4f4"/>
      <stop offset="1" stop-color="#e6e6e6"/>
    </linearGradient>
    <linearGradient id="linear-gradient1" x1="93.2" y1="154.4" x2="877" y2="154.4" gradientTransform="translate(0 660) scale(1 -1)" gradientUnits="userSpaceOnUse">
      <stop offset="0" stop-color="#fff"/>
      <stop offset=".5" stop-color="#fcfcfc"/>
      <stop offset=".8" stop-color="#f4f4f4"/>
      <stop offset="1" stop-color="#e6e6e6"/>
    </linearGradient>
    <linearGradient id="linear-gradient2" x1="92.8" y1="140.1" x2="872.7" y2="140.1" gradientTransform="translate(0 660) scale(1 -1)" gradientUnits="userSpaceOnUse">
      <stop offset="0" stop-color="#fff"/>
      <stop offset=".5" stop-color="#fcfcfc"/>
      <stop offset=".8" stop-color="#f4f4f4"/>
      <stop offset="1" stop-color="#e6e6e6"/>
    </linearGradient>
  </defs>
  <g id="shoe28">
    <path id="shoe28_x5F_16" d="M785.8,380.3c-25.7-14.1-19.5-34.2-13-55.1.7-2.2,1.6-4.5,2.6-6.8h0c-23.8,17.6-72.2,19.1-93.4,15.3-15.7-2.8-42.5-18-61.9-30h0c8.7,6.6,38.2,27.3,44.9,31.7,6.6,4.4,11.7,11.5,11.7,20.2s-10.9,17.5-30.6,13c-19.8-4.5-37-8.2-49.4-11.6s-28.7-4.8-52.4-3.1c-23.7,1.7-84.6,17.2-101.4,21s-18.8,4.4-22.4,4.9c-3.7.6-12.7.4-16.7-4.5s-7.8-10.4-9.2-13.1c-1.4-2.7-1.8-7.2,5.9-10.2s53.8-15.8,65.8-23.8c-10.7,4.3-20.6,8-28.2,10.1-27.1,7.6-119.7,33-135,37.6-7.8,2.3-8.9,8.2-11,13.3-2.1,5.1,4.9,12.7,7.5,13.1,2.5.4,3.7,4.5-1.4,4.7s-13-1.3-17.6-5.6-4.5-11.6-1.1-18.1c-13,2.5-53.9,10.4-79.1,11.6-25.1,1.1-70.7.7-85.8,20.7-3.5,4.6-6.2,9.2-8.4,13.5-2.2,6.2-2.9,11.9-3.2,13.5,3.1,8.2,16.1,15.2,27.4,17.5s54.5,12.4,77.1,16.1,36.1,7.1,57,4.5c20.9-2.5,37.6.3,51.4,3.4s19.8-9.6,26.5-13c6.8-3.4,16.8-1,28.6,6.8,10.8,7.2,16.2,3.1,23.3-9.3,7-12.1,24-2.5,38.4,12.4s21.6,3.1,29.5-5.4,20.1-6.9,27.8.3c4.7,4.4,11.9,13,21.7,22.6,9.8,9.6,19.8,1.4,23.7-2,4-3.4,16.4-5.9,26.8-5.9s31.6,1.1,93.7-.8c62.1-2,92.4-1.5,139.2-8.8,36-5.6,37.7-16.8,45.6-18.7,2.1-.5,4.1-1.2,6.1-2h0c-7.8-38.2-35.7-66-61.4-80.1h.4ZM366.5,389.3c-13.7,1.9-43.9,4.2-54,5.3s-8.5-9.2-8.1-14.4,13.7-6.9,22.8-8.7c9-1.8,28.8-6.5,40.1-9.1,11.3-2.6,14.9-.8,18.6,4.3,0,0,3.6,4.3,5.3,9.8s-10.9,10.9-24.7,12.8h0Z"/>
    <path id="shoe28_x5F_15" d="M280.7,401.5c4.7,4.4,12.6,5.8,17.6,5.6s4-4.2,1.4-4.7c-2.5-.4-9.6-8-7.5-13.1s3.2-11,11-13.3c0,0-2-4-4-4.5-2-.6-6.2,5.9-8.2,7.6s-8.5,0-11.6,4.2c-3.4,6.5-3.5,13.7,1.1,18.1h.2Z"/>
    <path id="shoe28_x5F_14" d="M385.9,366.7c-3.8-5.1-7.3-7-18.6-4.3-11.3,2.6-31.1,7.3-40.1,9.1-9,1.8-22.4,3.6-22.8,8.7s-2.1,15.5,8.1,14.4,40.3-3.4,54-5.3,26.4-7.3,24.7-12.8-5.3-9.8-5.3-9.8h0Z"/>
    <path id="shoe28_x5F_13" class="st4" d="M576.1,315.5c2.5-2.5,5.6-3.8,8.8-4.1s8.1,1,11.1,4.1,4.3,7,4.1,10.9-1.6,6.6-4.1,9.1c-5.5,5.5-14.4,5.5-19.9,0s-5.5-14.4,0-19.9Z"/>
    <path id="shoe28_x5F_12" d="M665,335.5c-6.6-4.4-36.1-25.1-44.9-31.7h0c-6.9-4.3-12.8-8.1-17-10.8-15.8-10.4-48.4-1.9-65.2,4.6-11.4,4.5-44,19.8-71.5,30.9h0c-12.1,8-58.1,20.8-65.8,23.8s-7.3,7.5-5.9,10.2,5.2,8.2,9.2,13.1,13,5.1,16.7,4.5,5.6-1.1,22.4-4.9,77.6-19.3,101.4-21c23.7-1.7,40-.3,52.4,3.1s29.6,7.1,49.4,11.6c19.8,4.5,30.6-5.4,30.6-13s-5.1-15.8-11.7-20.2v-.2ZM586,339.4c-2.3,0-4.4-.5-6.3-1.5-4.6-2.3-7.8-7.1-7.8-12.6s3.5-10.9,8.6-13,3.5-1.1,5.5-1.1c5.2,0,9.8,2.8,12.2,7.1s1.9,4.5,1.9,7c0,7.8-6.3,14.1-14.1,14.1Z"/>
    <path id="shoe28_x5F_11" class="st5" d="M579.8,261c-1-1-1.9-1.6-2.8-1.9-1.6-.6-2.7,0-3.3.5-.8.9-16.8,17.6-18.7,21.2h0c4.3-1,9.3-2,14.7-3.5,9.5-2.6,17.7-1.9,24.9.2-3-3.5-12-13.5-14.9-16.5h0Z"/>
    <path id="shoe28_x5F_10" d="M606.9,260c-5.3-8.5-13.7-10.9-20.9-7.5-2.3,1.1-5.5,3.5-9,6.5.8.3,1.7.9,2.8,1.9,2.9,3,11.9,13,14.9,16.5,7.8,2.3,14.2,6.3,19.2,9.7,3.1,2.1,6.7,4.3,11,6.7h0c-2.7-4.4-12.7-25.3-18-33.8h0Z"/>
    <path id="shoe28_x5F_9" d="M784.4,302.8c-6.6,3.5-29.3,16.7-44.8,21.1-16.3,4.7-50.4,7.6-77.2-8.6-16.8-10.1-28.6-16.5-37.5-21.5-4.3-2.4-7.9-4.6-11-6.7-9.6-6.5-24.3-15.2-44-9.9-5.5,1.5-10.5,2.5-14.7,3.5-11.2,2.6-17.8,5.2-17.2,16.9,4.2-1.6,9.4-3.4,15.1-4.9,17-4.6,38.3-7.5,50.2.3,3.8,2.5,9.2,6,15.5,9.9,19.4,12.1,47.3,28.1,63.4,31,21.3,3.8,69.6,2.3,93.4-15.3h0c2.3-5.1,5.4-10.4,8.9-15.7h-.1Z"/>
    <path id="shoe28_x5F_8" d="M755.6,308.2c-5.9,3.7-18.2,14.8-22.6,17.1,2-.4,4.1-.9,6.6-1.4,15.6-3.7,38.2-17.6,44.8-21.1h0c3.5-5.3,7.5-10.5,11.3-15.4h0c-7.4,4.3-34.1,17-40.1,20.8Z"/>
    <path id="shoe28_x5F_7" d="M809.3,268.2c-11.6,6.2-44.6,24.8-56.8,32.8-12.1,7.9-25.2,19.7-35.4,26.5,2.2-.1,5.9,0,15.9-2.1,4.4-2.4,16.7-13.4,22.6-17.1,6-3.8,32.7-16.5,40.1-20.8h0c7-8.7,13.9-16.3,18.2-21.2-1.5.4-3,1.1-4.7,2h.1Z"/>
    <path id="shoe28_x5F_6" class="st0" d="M826.2,399.5c-23.2-26-56.2-34.3-47.7-60.4,7.8-24,18.9-46,46.8-70.8-2.7-2.6-6.4-3.5-11.3-2.1h0c-10.4,11.6-34.6,38.1-41.1,59s-12.7,40.9,13,55.1c25.7,14.1,53.6,41.9,61.4,80.1h0c2.7-1.1,5.3-2.4,7.5-3.8-3.1-22.3-7.1-33-28.6-57.1h0Z"/>
    <path id="shoe28_x5F_5" class="st5" d="M844,312.5c-2-3-4.3-5.5-7.5-3.7-.5.3-.9.6-1.4,1-4,3.6-11.7,11.1-15.5,15.1-5.9,6.1-5.5,18.4,6.4,13.6,7.2-2.9,11.5-7.1,14.2-10.6,1.8-2.3,3-4.3,3.8-5.5,2.3-3.1,2.3-6.5,0-9.9Z"/>
    <path id="shoe28_x5F_4" d="M860.9,445.2c-3.1-23.2-9.3-55.9-13.3-77.4-1.6-8.9-4.5-24.2-7.5-39.9-2.8,3.5-7,7.7-14.2,10.6-11.9,4.8-12.3-7.5-6.4-13.6,3.9-4,11.6-11.5,15.5-15.1.5-.4,1-.8,1.4-1-2.9-15.1-5.5-27.9-6.6-31.9-1-3.6-2.5-6.6-4.6-8.6-27.9,24.7-39,46.8-46.8,70.8-8.5,26.1,24.6,34.4,47.7,60.4,21.5,24.1,25.4,34.7,28.6,57.1,5.6-3.7,8.9-8.1,6.2-11.3h0Z"/>
    <path id="shoe28_x5F_3" class="st3" d="M875.9,465.3c0-11.3-9.3-19.5-15-20,4.6,5.5-7.9,14.3-19.9,17.1-7.9,1.9-9.6,13.2-45.6,18.7-46.8,7.2-77.1,6.8-139.2,8.8-62.1,2-83.3.8-93.7.8s-22.9,2.5-26.8,5.9c-4,3.4-13.8,11.6-23.7,2s-17.1-18.2-21.7-22.6c-7.7-7.2-19.9-8.8-27.8-.3s-15.1,20.4-29.5,5.4-31.4-24.5-38.4-12.4c-7.2,12.4-12.5,16.5-23.3,9.3-11.8-7.8-21.8-10.2-28.6-6.8-6.8,3.4-12.7,16.1-26.5,13s-30.5-5.9-51.4-3.4-34.4-.8-57-4.5-65.8-13.8-77.1-16.1c-11.3-2.3-24.3-9.3-27.4-17.5.3-1.6,1-7.4,3.2-13.5,1.7-4.8,4.3-9.9,8.4-13.5-7.5,2.6-15.4,16.2-16.9,27.9-1.3,2.6-2.6,7.8-3.6,13.6,1.7,7.3,6.8,13.1,13.7,16.5,7,3.4,48.9,17.3,77.9,24.1,29,6.8,37.8,8.3,49.7,10.2,11.9,1.9,32.6,1.7,39.9,1.1s18.1-.8,27.5,2.6c9.4,3.4,19.2,7.9,27.3,0,8.1-7.9,14.5-15.4,25.2-4.9,10.7,10.5,19.6,7.3,24.3,5.1,4.7-2.3,10.7-7.2,13.9-10.5,3.2-3.4,8.5-11.1,21.8-1.5s20.7,18.1,31.6,17.3,17.7-4.7,20.1-10.9c2.4-6.2,11.3-10.7,22.8.8,11.5,11.5,19.6,22.4,32.9,19.8,13.4-2.6,16.8-9,40.7-9s86.8.2,112.9,0,92-3.2,115-5.5,40.8-6.2,52.9-18.1,23-9.2,31.8-18.8c-.2-4.4-.4-7.9-.4-10.1h0Z"/>
    <path id="shoe28_x5F_2" class="st2" d="M844.5,494.2c-12,11.9-29.9,15.8-52.9,18.1s-88.8,5.3-115,5.5-89,0-112.9,0-27.3,6.4-40.7,9c-13.4,2.6-21.5-8.3-32.9-19.8-11.5-11.5-20.3-7-22.8-.8-2.4,6.2-9.2,10.2-20.1,10.9-10.9.8-18.3-7.7-31.6-17.3s-18.6-1.9-21.8,1.5c-3.2,3.4-9.2,8.3-13.9,10.5-4.7,2.3-13.6,5.5-24.3-5.1-10.7-10.5-17.1-3-25.2,4.9-8.1,7.9-17.9,3.4-27.3,0-9.4-3.4-20.1-3.2-27.5-2.6s-28,.8-39.9-1.1-20.7-3.4-49.7-10.2c-29-6.8-71-20.7-77.9-24.1-7-3.4-12-9.2-13.7-16.5-.6,3.4-1,7.1-1.2,10.6,2.6,7.6,7.4,13.7,20.9,19.5,13.7,5.8,71.3,23.5,100.1,29.6,28.8,6,45.6,7.9,57.4,8.8,11.9.9,30.9,6.6,37.1,10.4s12.6,6.2,27.3,4.3c14.7-1.9,33.1-4,41,.6s18.1,6.3,27.7,2.6c9.6-3.8,27.5-10.2,38.6-3.2s21.3,7.3,29.6,3,21.5-6,31.8,1.1c10.4,7.2,15.8,11.5,24.5,9,8.7-2.4,15.6-2.8,29.4-2.6s79.4.2,98.3.2,112.6-.4,131.6-.6,47.1-2.6,59.1-5.8,19.2-14.2,25.4-14c4.8-18.2,4.2-41.3,3.6-55.3-8.9,9.6-19.8,7-31.8,18.8h-.3Z"/>
    <path id="shoe28_x5F_1" class="st1" d="M94.9,482.8c4.5,7.3,22,36.1,86.7,53.9,64.7,17.8,157.3,32.2,232.4,33.6,75.1,1.4,297.9,2.3,332.9,1.7s102.5-2.5,118.3-24.3c3.4-4.6,5.8-10.6,7.5-17.1-6.2-.2-13.4,10.8-25.4,14s-40.1,5.6-59.1,5.8-112.8.6-131.6.6-84.5,0-98.3-.2-20.7.2-29.4,2.6c-8.7,2.4-14.1-1.9-24.5-9-10.4-7.2-23.5-5.5-31.8-1.1s-18.4,4-29.6-3c-11.1-7-29-.6-38.6,3.2s-19.8,2.1-27.7-2.6c-7.9-4.6-26.4-2.5-41-.6-14.7,1.9-21.1-.6-27.3-4.3s-25.2-9.4-37.1-10.4c-11.9-.9-28.6-2.8-57.4-8.8-28.8-6-86.4-23.7-100.1-29.6-13.6-5.8-18.3-11.9-20.9-19.5-.3,6.3,0,12.1,1.9,15.1h.1Z"/>
  </g>
</svg>