<?xml version="1.0" encoding="UTF-8"?>
<svg id="shapes" xmlns="http://www.w3.org/2000/svg" width="960" height="660" xmlns:xlink="http://www.w3.org/1999/xlink" version="1.1" viewBox="0 0 960 660">
  <defs>
    <style>
      .cls-1 {
        fill: #5e4a68;
      }

      .cls-1, .cls-2, .cls-3, .cls-4, .cls-5, .cls-6, .cls-7, .cls-8, .cls-9, .cls-10, .cls-11, .cls-12, .cls-13, .cls-14, .cls-15, .cls-16, .cls-17, .cls-18, .cls-19, .cls-20, .cls-21, .cls-22, .cls-23, .cls-24, .cls-25, .cls-26, .cls-27, .cls-28, .cls-29, .cls-30, .cls-31, .cls-32, .cls-33, .cls-34, .cls-35, .cls-36, .cls-37, .cls-38, .cls-39, .cls-40, .cls-41, .cls-42, .cls-43, .cls-44, .cls-45, .cls-46, .cls-47, .cls-48, .cls-49, .cls-50, .cls-51, .cls-52, .cls-53, .cls-54, .cls-55, .cls-56, .cls-57, .cls-58, .cls-59, .cls-60, .cls-61, .cls-62, .cls-63, .cls-64, .cls-65, .cls-66, .cls-67, .cls-68, .cls-69, .cls-70, .cls-71, .cls-72, .cls-73, .cls-74, .cls-75, .cls-76, .cls-77, .cls-78, .cls-79, .cls-80, .cls-81, .cls-82, .cls-83, .cls-84, .cls-85, .cls-86, .cls-87, .cls-88, .cls-89, .cls-90, .cls-91, .cls-92, .cls-93, .cls-94, .cls-95, .cls-96, .cls-97, .cls-98, .cls-99, .cls-100, .cls-101, .cls-102, .cls-103, .cls-104, .cls-105, .cls-106, .cls-107, .cls-108, .cls-109, .cls-110, .cls-111, .cls-112, .cls-113, .cls-114, .cls-115, .cls-116, .cls-117, .cls-118, .cls-119, .cls-120, .cls-121, .cls-122, .cls-123, .cls-124, .cls-125, .cls-126, .cls-127, .cls-128, .cls-129, .cls-130, .cls-131, .cls-132, .cls-133, .cls-134, .cls-135, .cls-136, .cls-137, .cls-138, .cls-139, .cls-140, .cls-141, .cls-142, .cls-143, .cls-144, .cls-145, .cls-146, .cls-147, .cls-148, .cls-149, .cls-150, .cls-151, .cls-152, .cls-153, .cls-154, .cls-155, .cls-156, .cls-157, .cls-158, .cls-159, .cls-160, .cls-161, .cls-162, .cls-163, .cls-164, .cls-165, .cls-166, .cls-167, .cls-168, .cls-169, .cls-170, .cls-171, .cls-172, .cls-173, .cls-174, .cls-175, .cls-176, .cls-177, .cls-178, .cls-179, .cls-180, .cls-181, .cls-182, .cls-183 {
        stroke-width: 0px;
      }

      .cls-184 {
        font-family: Manuka-Bold, 'Copyright Klim Type Foundry';
        font-size: 50px;
        font-weight: 700;
      }

      .cls-184, .cls-178 {
        fill: #fff;
      }

      .cls-2 {
        fill: #a01529;
      }

      .cls-3 {
        fill: #f2f2ed;
      }

      .cls-4 {
        fill: #0087cd;
      }

      .cls-5 {
        fill: url(#WhiteGradient-104);
      }

      .cls-6 {
        fill: url(#WhiteGradient-103);
      }

      .cls-7 {
        fill: url(#WhiteGradient-101);
      }

      .cls-8 {
        fill: url(#WhiteGradient-102);
      }

      .cls-9 {
        fill: url(#WhiteGradient-100);
      }

      .cls-10 {
        fill: url(#WhiteGradient-107);
      }

      .cls-11 {
        fill: url(#WhiteGradient-106);
      }

      .cls-12 {
        fill: url(#WhiteGradient-105);
      }

      .cls-13 {
        fill: #f15e17;
      }

      .cls-14 {
        fill: #efefef;
      }

      .cls-15 {
        fill: #f7ce06;
      }

      .cls-16 {
        fill: #baa4f7;
      }

      .cls-17 {
        fill: #bc91a0;
      }

      .cls-18 {
        fill: #bc1727;
      }

      .cls-19 {
        fill: #423549;
      }

      .cls-20 {
        fill: url(#linear-gradient);
      }

      .cls-21 {
        fill: url(#radial-gradient);
      }

      .cls-22 {
        fill: url(#WhiteGradient-95);
      }

      .cls-23 {
        fill: url(#WhiteGradient-96);
      }

      .cls-24 {
        fill: url(#WhiteGradient-98);
      }

      .cls-25 {
        fill: url(#WhiteGradient-97);
      }

      .cls-26 {
        fill: url(#WhiteGradient-99);
      }

      .cls-27 {
        fill: url(#WhiteGradient-93);
      }

      .cls-28 {
        fill: url(#WhiteGradient-94);
      }

      .cls-29 {
        fill: url(#WhiteGradient-90);
      }

      .cls-30 {
        fill: url(#WhiteGradient-91);
      }

      .cls-31 {
        fill: url(#WhiteGradient-92);
      }

      .cls-32 {
        fill: url(#WhiteGradient-69);
      }

      .cls-33 {
        fill: url(#WhiteGradient-67);
      }

      .cls-34 {
        fill: url(#WhiteGradient-66);
      }

      .cls-35 {
        fill: url(#WhiteGradient-68);
      }

      .cls-36 {
        fill: url(#WhiteGradient-85);
      }

      .cls-37 {
        fill: url(#WhiteGradient-88);
      }

      .cls-38 {
        fill: url(#WhiteGradient-61);
      }

      .cls-39 {
        fill: url(#WhiteGradient-62);
      }

      .cls-40 {
        fill: url(#WhiteGradient-63);
      }

      .cls-41 {
        fill: url(#WhiteGradient-60);
      }

      .cls-42 {
        fill: url(#WhiteGradient-64);
      }

      .cls-43 {
        fill: url(#WhiteGradient-65);
      }

      .cls-44 {
        fill: url(#WhiteGradient-22);
      }

      .cls-45 {
        fill: url(#WhiteGradient-23);
      }

      .cls-46 {
        fill: url(#WhiteGradient-79);
      }

      .cls-47 {
        fill: url(#WhiteGradient-78);
      }

      .cls-48 {
        fill: url(#WhiteGradient-75);
      }

      .cls-49 {
        fill: url(#WhiteGradient-74);
      }

      .cls-50 {
        fill: url(#WhiteGradient-24);
      }

      .cls-51 {
        fill: url(#WhiteGradient-20);
      }

      .cls-52 {
        fill: url(#WhiteGradient-21);
      }

      .cls-53 {
        fill: url(#WhiteGradient-29);
      }

      .cls-54 {
        fill: url(#WhiteGradient-28);
      }

      .cls-55 {
        fill: url(#WhiteGradient-76);
      }

      .cls-56 {
        fill: url(#WhiteGradient-77);
      }

      .cls-57 {
        fill: url(#WhiteGradient-73);
      }

      .cls-58 {
        fill: url(#WhiteGradient-70);
      }

      .cls-59 {
        fill: url(#WhiteGradient-72);
      }

      .cls-60 {
        fill: url(#WhiteGradient-71);
      }

      .cls-61 {
        fill: url(#WhiteGradient-50);
      }

      .cls-62 {
        fill: url(#WhiteGradient-55);
      }

      .cls-63 {
        fill: url(#WhiteGradient-52);
      }

      .cls-64 {
        fill: url(#WhiteGradient-25);
      }

      .cls-65 {
        fill: url(#WhiteGradient-57);
      }

      .cls-66 {
        fill: url(#WhiteGradient-54);
      }

      .cls-67 {
        fill: url(#WhiteGradient-53);
      }

      .cls-68 {
        fill: url(#WhiteGradient-51);
      }

      .cls-69 {
        fill: url(#WhiteGradient-89);
      }

      .cls-70 {
        fill: url(#WhiteGradient-26);
      }

      .cls-71 {
        fill: url(#WhiteGradient-27);
      }

      .cls-72 {
        fill: url(#WhiteGradient-86);
      }

      .cls-73 {
        fill: url(#WhiteGradient-87);
      }

      .cls-74 {
        fill: url(#WhiteGradient-82);
      }

      .cls-75 {
        fill: url(#WhiteGradient-84);
      }

      .cls-76 {
        fill: url(#WhiteGradient-59);
      }

      .cls-77 {
        fill: url(#WhiteGradient-81);
      }

      .cls-78 {
        fill: url(#WhiteGradient-83);
      }

      .cls-79 {
        fill: url(#WhiteGradient-80);
      }

      .cls-80 {
        fill: url(#WhiteGradient-56);
      }

      .cls-81 {
        fill: url(#WhiteGradient-58);
      }

      .cls-82 {
        fill: url(#WhiteGradient-45);
      }

      .cls-83 {
        fill: url(#WhiteGradient-44);
      }

      .cls-84 {
        fill: url(#WhiteGradient-35);
      }

      .cls-85 {
        fill: url(#WhiteGradient-49);
      }

      .cls-86 {
        fill: url(#WhiteGradient-40);
      }

      .cls-87 {
        fill: url(#WhiteGradient-41);
      }

      .cls-88 {
        fill: url(#WhiteGradient-46);
      }

      .cls-89 {
        fill: url(#WhiteGradient-47);
      }

      .cls-90 {
        fill: url(#WhiteGradient-48);
      }

      .cls-91 {
        fill: url(#WhiteGradient-36);
      }

      .cls-92 {
        fill: url(#WhiteGradient-42);
      }

      .cls-93 {
        fill: url(#WhiteGradient-43);
      }

      .cls-94 {
        fill: url(#WhiteGradient-31);
      }

      .cls-95 {
        fill: url(#WhiteGradient-30);
      }

      .cls-96 {
        fill: url(#WhiteGradient-17);
      }

      .cls-97 {
        fill: url(#WhiteGradient-18);
      }

      .cls-98 {
        fill: url(#WhiteGradient-15);
      }

      .cls-99 {
        fill: url(#WhiteGradient-32);
      }

      .cls-100 {
        fill: url(#WhiteGradient-16);
      }

      .cls-101 {
        fill: url(#WhiteGradient-12);
      }

      .cls-102 {
        fill: url(#WhiteGradient-13);
      }

      .cls-103 {
        fill: url(#WhiteGradient-33);
      }

      .cls-104 {
        fill: url(#WhiteGradient-34);
      }

      .cls-105 {
        fill: url(#WhiteGradient-39);
      }

      .cls-106 {
        fill: url(#WhiteGradient-38);
      }

      .cls-107 {
        fill: url(#WhiteGradient-37);
      }

      .cls-108 {
        fill: url(#WhiteGradient-14);
      }

      .cls-109 {
        fill: url(#WhiteGradient-19);
      }

      .cls-110 {
        fill: url(#WhiteGradient-11);
      }

      .cls-111 {
        fill: url(#WhiteGradient-10);
      }

      .cls-112 {
        fill: #6c3bd6;
      }

      .cls-113 {
        fill: #6b6bc6;
      }

      .cls-114 {
        fill: url(#linear-gradient-11);
      }

      .cls-115 {
        fill: url(#linear-gradient-12);
      }

      .cls-116 {
        fill: url(#linear-gradient-13);
      }

      .cls-117 {
        fill: url(#linear-gradient-10);
      }

      .cls-118 {
        fill: url(#linear-gradient-17);
      }

      .cls-119 {
        fill: url(#linear-gradient-16);
      }

      .cls-120 {
        fill: url(#linear-gradient-19);
      }

      .cls-121 {
        fill: url(#linear-gradient-15);
      }

      .cls-122 {
        fill: url(#linear-gradient-21);
      }

      .cls-123 {
        fill: url(#linear-gradient-18);
      }

      .cls-124 {
        fill: url(#linear-gradient-14);
      }

      .cls-125 {
        fill: url(#linear-gradient-20);
      }

      .cls-126 {
        fill: #0f346b;
      }

      .cls-127 {
        fill: #f9a513;
      }

      .cls-128 {
        fill: #6d6d6d;
      }

      .cls-129 {
        fill: #f7f7f7;
      }

      .cls-130 {
        fill: #2b61af;
      }

      .cls-131 {
        fill: #071344;
      }

      .cls-132 {
        fill: #4bdee2;
      }

      .cls-133 {
        fill: #c7e6e6;
      }

      .cls-134 {
        fill: #e3f71e;
      }

      .cls-135 {
        fill: #878787;
      }

      .cls-136 {
        fill: #000;
      }

      .cls-137 {
        fill: #ffa197;
      }

      .cls-138 {
        fill: #dfdfdf;
      }

      .cls-139 {
        fill: #d81f28;
      }

      .cls-140 {
        fill: #6f5d77;
      }

      .cls-141 {
        fill: #28285e;
      }

      .cls-142 {
        fill: #f9e26e;
      }

      .cls-143 {
        fill: #7a6c84;
      }

      .cls-144 {
        fill: #a8a8a8;
      }

      .cls-145 {
        fill: #f7ce06;
      }

      .cls-146 {
        fill: #382e88;
      }

      .cls-147 {
        fill: #231c28;
      }

      .cls-148 {
        fill: #191919;
      }

      .cls-149 {
        fill: #ffdd17;
      }

      .cls-150 {
        fill: #e8bc05;
      }

      .cls-151 {
        fill: #bc1727;
      }

      .cls-152 {
        fill: #8c0c24;
      }

      .cls-153 {
        fill: #262626;
      }

      .cls-154 {
        fill: #1d1d44;
      }

      .cls-155 {
        fill: url(#WhiteGradient-4);
      }

      .cls-156 {
        fill: url(#WhiteGradient-5);
      }

      .cls-157 {
        fill: url(#WhiteGradient-6);
      }

      .cls-158 {
        fill: url(#WhiteGradient-7);
      }

      .cls-159 {
        fill: url(#WhiteGradient-2);
      }

      .cls-160 {
        fill: url(#WhiteGradient-8);
      }

      .cls-161 {
        fill: url(#WhiteGradient-9);
      }

      .cls-162 {
        fill: url(#WhiteGradient-3);
      }

      .cls-163 {
        fill: url(#linear-gradient-4);
      }

      .cls-164 {
        fill: url(#linear-gradient-2);
      }

      .cls-165 {
        fill: url(#linear-gradient-3);
      }

      .cls-166 {
        fill: url(#linear-gradient-8);
      }

      .cls-167 {
        fill: url(#linear-gradient-9);
      }

      .cls-168 {
        fill: url(#linear-gradient-7);
      }

      .cls-169 {
        fill: url(#linear-gradient-5);
      }

      .cls-170 {
        fill: url(#linear-gradient-6);
      }

      .cls-171 {
        fill: #edede2;
      }

      .cls-172 {
        fill: #e8cfcf;
      }

      .cls-173 {
        fill: #f4887f;
      }

      .cls-174 {
        fill: url(#WhiteGradient);
      }

      .cls-175 {
        fill: #1d4c96;
      }

      .cls-176 {
        fill: #382e88;
      }

      .cls-177 {
        fill: #030c28;
      }

      .cls-179 {
        fill: #eef91c;
      }

      .cls-180 {
        fill: #4a46a5;
      }

      .cls-181 {
        fill: #cacaca;
      }

      .cls-182 {
        fill: #bab9fd;
      }

      .cls-183 {
        fill: #ff8a3a;
      }
    </style>
    <linearGradient id="WhiteGradient" x1="77.3" y1="430" x2="388.9" y2="430" gradientUnits="userSpaceOnUse">
      <stop offset="0" stop-color="#fff"/>
      <stop offset=".5" stop-color="#fcfcfc"/>
      <stop offset=".8" stop-color="#f4f4f4"/>
      <stop offset="1" stop-color="#e6e6e6"/>
    </linearGradient>
    <linearGradient id="WhiteGradient-2" data-name="WhiteGradient" x1="193.7" y1="528.5" x2="523.7" y2="528.5" xlink:href="#WhiteGradient"/>
    <linearGradient id="WhiteGradient-3" data-name="WhiteGradient" x1="171.6" y1="407" x2="498.2" y2="407" xlink:href="#WhiteGradient"/>
    <linearGradient id="WhiteGradient-4" data-name="WhiteGradient" x1="408" y1="342.7" x2="543.3" y2="342.7" xlink:href="#WhiteGradient"/>
    <linearGradient id="WhiteGradient-5" data-name="WhiteGradient" x1="498.2" y1="265.6" x2="850.5" y2="265.6" xlink:href="#WhiteGradient"/>
    <linearGradient id="WhiteGradient-6" data-name="WhiteGradient" x1="707.8" y1="401" x2="887.5" y2="401" xlink:href="#WhiteGradient"/>
    <linearGradient id="WhiteGradient-7" data-name="WhiteGradient" x1="609" y1="492.3" x2="896.7" y2="492.3" xlink:href="#WhiteGradient"/>
    <linearGradient id="WhiteGradient-8" data-name="WhiteGradient" x1="90.1" y1="449.5" x2="254.1" y2="449.5" xlink:href="#WhiteGradient"/>
    <linearGradient id="WhiteGradient-9" data-name="WhiteGradient" x1="113.7" y1="520" x2="321.7" y2="520" xlink:href="#WhiteGradient"/>
    <linearGradient id="WhiteGradient-10" data-name="WhiteGradient" x1="135.9" y1="441.1" x2="322.1" y2="441.1" xlink:href="#WhiteGradient"/>
    <linearGradient id="WhiteGradient-11" data-name="WhiteGradient" x1="282.9" y1="510.2" x2="726.4" y2="510.2" xlink:href="#WhiteGradient"/>
    <linearGradient id="WhiteGradient-12" data-name="WhiteGradient" x1="438.1" y1="262.2" x2="579.2" y2="262.2" xlink:href="#WhiteGradient"/>
    <linearGradient id="WhiteGradient-13" data-name="WhiteGradient" x1="553.4" y1="326.8" x2="860.2" y2="326.8" xlink:href="#WhiteGradient"/>
    <linearGradient id="WhiteGradient-14" data-name="WhiteGradient" x1="701.6" y1="470.2" x2="883.9" y2="470.2" xlink:href="#WhiteGradient"/>
    <linearGradient id="WhiteGradient-15" data-name="WhiteGradient" x1="840.3" y1="478.4" x2="886" y2="478.4" xlink:href="#WhiteGradient"/>
    <linearGradient id="WhiteGradient-16" data-name="WhiteGradient" x1="115.8" y1="517.5" x2="561.5" y2="517.5" xlink:href="#WhiteGradient"/>
    <linearGradient id="WhiteGradient-17" data-name="WhiteGradient" x1="-40243.3" y1="234.6" x2="311033.1" y2="234.6" xlink:href="#WhiteGradient"/>
    <linearGradient id="WhiteGradient-18" data-name="WhiteGradient" x1="575.5" y1="253.1" x2="785.8" y2="253.1" xlink:href="#WhiteGradient"/>
    <linearGradient id="WhiteGradient-19" data-name="WhiteGradient" x1="550.9" y1="285" x2="793.2" y2="285" xlink:href="#WhiteGradient"/>
    <linearGradient id="WhiteGradient-20" data-name="WhiteGradient" x1="128.5" y1="383.9" x2="797.7" y2="383.9" xlink:href="#WhiteGradient"/>
    <linearGradient id="WhiteGradient-21" data-name="WhiteGradient" x1="256.3" y1="407.2" x2="804.6" y2="407.2" xlink:href="#WhiteGradient"/>
    <linearGradient id="WhiteGradient-22" data-name="WhiteGradient" x1="266.1" y1="491.8" x2="833.8" y2="491.8" xlink:href="#WhiteGradient"/>
    <linearGradient id="WhiteGradient-23" data-name="WhiteGradient" x1="120.7" y1="435.2" x2="822.2" y2="435.2" xlink:href="#WhiteGradient"/>
    <linearGradient id="WhiteGradient-24" data-name="WhiteGradient" x1="523.3" y1="216.7" x2="643.2" y2="216.7" xlink:href="#WhiteGradient"/>
    <linearGradient id="WhiteGradient-25" data-name="WhiteGradient" x1="602.5" y1="303.3" x2="867.5" y2="303.3" xlink:href="#WhiteGradient"/>
    <linearGradient id="WhiteGradient-26" data-name="WhiteGradient" x1="90.7" y1="384.5" x2="880" y2="384.5" xlink:href="#WhiteGradient"/>
    <linearGradient id="WhiteGradient-27" data-name="WhiteGradient" x1="715.5" y1="457.7" x2="899.2" y2="457.7" xlink:href="#WhiteGradient"/>
    <linearGradient id="WhiteGradient-28" data-name="WhiteGradient" x1="178.9" y1="438.5" x2="474.5" y2="438.5" xlink:href="#WhiteGradient"/>
    <linearGradient id="WhiteGradient-29" data-name="WhiteGradient" x1="474.5" y1="382.3" x2="846.5" y2="382.3" xlink:href="#WhiteGradient"/>
    <linearGradient id="WhiteGradient-30" data-name="WhiteGradient" x1="745.5" y1="398.8" x2="861.2" y2="398.8" xlink:href="#WhiteGradient"/>
    <linearGradient id="WhiteGradient-31" data-name="WhiteGradient" x1="142.8" y1="492.1" x2="882.5" y2="492.1" xlink:href="#WhiteGradient"/>
    <linearGradient id="WhiteGradient-32" data-name="WhiteGradient" x1="78.4" y1="487.7" x2="218" y2="487.7" xlink:href="#WhiteGradient"/>
    <linearGradient id="WhiteGradient-33" data-name="WhiteGradient" x1="165.4" y1="527.2" x2="560.4" y2="527.2" xlink:href="#WhiteGradient"/>
    <linearGradient id="WhiteGradient-34" data-name="WhiteGradient" x1="92.7" y1="376.5" x2="799.5" y2="376.5" xlink:href="#WhiteGradient"/>
    <linearGradient id="WhiteGradient-35" data-name="WhiteGradient" x1="648.9" y1="497.3" x2="841.1" y2="497.3" xlink:href="#WhiteGradient"/>
    <linearGradient id="WhiteGradient-36" data-name="WhiteGradient" x1="153" y1="411.7" x2="632.4" y2="411.7" xlink:href="#WhiteGradient"/>
    <linearGradient id="WhiteGradient-37" data-name="WhiteGradient" x1="609" y1="230.8" x2="785.5" y2="230.8" xlink:href="#WhiteGradient"/>
    <linearGradient id="WhiteGradient-38" data-name="WhiteGradient" x1="784.1" y1="345.3" x2="828.1" y2="345.3" xlink:href="#WhiteGradient"/>
    <linearGradient id="WhiteGradient-39" data-name="WhiteGradient" x1="504.5" y1="328.1" x2="837.6" y2="328.1" xlink:href="#WhiteGradient"/>
    <linearGradient id="WhiteGradient-40" data-name="WhiteGradient" x1="107.3" y1="437.4" x2="589.3" y2="437.4" xlink:href="#WhiteGradient"/>
    <linearGradient id="WhiteGradient-41" data-name="WhiteGradient" x1="622.5" y1="334.4" x2="859.5" y2="334.4" xlink:href="#WhiteGradient"/>
    <linearGradient id="WhiteGradient-42" data-name="WhiteGradient" x1="613.2" y1="480.8" x2="878.4" y2="480.8" xlink:href="#WhiteGradient"/>
    <linearGradient id="WhiteGradient-43" data-name="WhiteGradient" x1="110" y1="464.7" x2="353.1" y2="464.7" xlink:href="#WhiteGradient"/>
    <linearGradient id="WhiteGradient-44" data-name="WhiteGradient" x1="298.7" y1="437.7" x2="780.2" y2="437.7" xlink:href="#WhiteGradient"/>
    <linearGradient id="WhiteGradient-45" data-name="WhiteGradient" x1="126.1" y1="347.2" x2="644.6" y2="347.2" xlink:href="#WhiteGradient"/>
    <linearGradient id="WhiteGradient-46" data-name="WhiteGradient" x1="546.5" y1="236.4" x2="767.1" y2="236.4" xlink:href="#WhiteGradient"/>
    <linearGradient id="WhiteGradient-47" data-name="WhiteGradient" x1="696.7" y1="335.5" x2="813.9" y2="335.5" xlink:href="#WhiteGradient"/>
    <linearGradient id="WhiteGradient-48" data-name="WhiteGradient" x1="793.6" y1="350.9" x2="851.8" y2="350.9" xlink:href="#WhiteGradient"/>
    <linearGradient id="WhiteGradient-49" data-name="WhiteGradient" x1="114" y1="414.6" x2="265.3" y2="414.6" xlink:href="#WhiteGradient"/>
    <linearGradient id="WhiteGradient-50" data-name="WhiteGradient" x1="101.3" y1="478.4" x2="281.2" y2="478.4" xlink:href="#WhiteGradient"/>
    <linearGradient id="WhiteGradient-51" data-name="WhiteGradient" x1="145" y1="508.8" x2="470.7" y2="508.8" xlink:href="#WhiteGradient"/>
    <linearGradient id="WhiteGradient-52" data-name="WhiteGradient" x1="265.1" y1="290.9" x2="504" y2="290.9" xlink:href="#WhiteGradient"/>
    <linearGradient id="WhiteGradient-53" data-name="WhiteGradient" x1="507.8" y1="214.7" x2="549.7" y2="214.7" xlink:href="#WhiteGradient"/>
    <linearGradient id="WhiteGradient-54" data-name="WhiteGradient" x1="159.6" y1="373.5" x2="743.2" y2="373.5" xlink:href="#WhiteGradient"/>
    <linearGradient id="WhiteGradient-55" data-name="WhiteGradient" x1="535.3" y1="306.5" x2="859.3" y2="306.5" xlink:href="#WhiteGradient"/>
    <linearGradient id="WhiteGradient-56" data-name="WhiteGradient" x1="540.1" y1="448.2" x2="874.9" y2="448.2" xlink:href="#WhiteGradient"/>
    <linearGradient id="WhiteGradient-57" data-name="WhiteGradient" x1="533" y1="549.5" x2="868.4" y2="549.5" xlink:href="#WhiteGradient"/>
    <linearGradient id="WhiteGradient-58" data-name="WhiteGradient" x1="119.1" y1="389.8" x2="844.6" y2="389.8" xlink:href="#WhiteGradient"/>
    <linearGradient id="WhiteGradient-59" data-name="WhiteGradient" x1="114.1" y1="378.1" x2="762.5" y2="378.1" xlink:href="#WhiteGradient"/>
    <linearGradient id="WhiteGradient-60" data-name="WhiteGradient" x1="473.6" y1="448.9" x2="867" y2="448.9" xlink:href="#WhiteGradient"/>
    <linearGradient id="WhiteGradient-61" data-name="WhiteGradient" x1="107" y1="431.6" x2="268.4" y2="431.6" xlink:href="#WhiteGradient"/>
    <linearGradient id="WhiteGradient-62" data-name="WhiteGradient" x1="122.9" y1="511.5" x2="400.5" y2="511.5" xlink:href="#WhiteGradient"/>
    <linearGradient id="WhiteGradient-63" data-name="WhiteGradient" x1="176.8" y1="389" x2="545.5" y2="389" xlink:href="#WhiteGradient"/>
    <linearGradient id="WhiteGradient-64" data-name="WhiteGradient" x1="707.5" y1="369.5" x2="830.7" y2="369.5" xlink:href="#WhiteGradient"/>
    <linearGradient id="WhiteGradient-65" data-name="WhiteGradient" x1="363.1" y1="492" x2="869.6" y2="492" xlink:href="#WhiteGradient"/>
    <linearGradient id="WhiteGradient-66" data-name="WhiteGradient" x1="160.9" y1="364.8" x2="843.3" y2="364.8" xlink:href="#WhiteGradient"/>
    <linearGradient id="WhiteGradient-67" data-name="WhiteGradient" x1="101.5" y1="508.2" x2="330.4" y2="508.2" xlink:href="#WhiteGradient"/>
    <linearGradient id="WhiteGradient-68" data-name="WhiteGradient" x1="150.6" y1="511" x2="380.1" y2="511" xlink:href="#WhiteGradient"/>
    <linearGradient id="WhiteGradient-69" data-name="WhiteGradient" x1="153.1" y1="319.7" x2="811.2" y2="319.7" xlink:href="#WhiteGradient"/>
    <linearGradient id="WhiteGradient-70" data-name="WhiteGradient" x1="419.6" y1="453.4" x2="855.2" y2="453.4" xlink:href="#WhiteGradient"/>
    <linearGradient id="WhiteGradient-71" data-name="WhiteGradient" x1="502.5" y1="503.7" x2="868.1" y2="503.7" xlink:href="#WhiteGradient"/>
    <linearGradient id="WhiteGradient-72" data-name="WhiteGradient" x1="607.4" y1="538.5" x2="863" y2="538.5" xlink:href="#WhiteGradient"/>
    <linearGradient id="WhiteGradient-73" data-name="WhiteGradient" x1="110.7" y1="448.7" x2="251.4" y2="448.7" xlink:href="#WhiteGradient"/>
    <linearGradient id="WhiteGradient-74" data-name="WhiteGradient" x1="107.4" y1="500.6" x2="479.5" y2="500.6" xlink:href="#WhiteGradient"/>
    <linearGradient id="WhiteGradient-75" data-name="WhiteGradient" x1="140" y1="389.8" x2="506.9" y2="389.8" xlink:href="#WhiteGradient"/>
    <linearGradient id="WhiteGradient-76" data-name="WhiteGradient" x1="502.9" y1="204.2" x2="561.7" y2="204.2" xlink:href="#WhiteGradient"/>
    <linearGradient id="WhiteGradient-77" data-name="WhiteGradient" x1="246" y1="366.9" x2="819.8" y2="366.9" xlink:href="#WhiteGradient"/>
    <linearGradient id="WhiteGradient-78" data-name="WhiteGradient" x1="715.7" y1="316.4" x2="834.3" y2="316.4" xlink:href="#WhiteGradient"/>
    <linearGradient id="WhiteGradient-79" data-name="WhiteGradient" x1="609.4" y1="407.3" x2="840.6" y2="407.3" xlink:href="#WhiteGradient"/>
    <linearGradient id="WhiteGradient-80" data-name="WhiteGradient" x1="285.3" y1="353.8" x2="397.7" y2="353.8" xlink:href="#WhiteGradient"/>
    <linearGradient id="WhiteGradient-81" data-name="WhiteGradient" x1="481.8" y1="233.4" x2="569.6" y2="233.4" xlink:href="#WhiteGradient"/>
    <linearGradient id="WhiteGradient-82" data-name="WhiteGradient" x1="244.7" y1="352.7" x2="758.7" y2="352.7" xlink:href="#WhiteGradient"/>
    <linearGradient id="WhiteGradient-83" data-name="WhiteGradient" x1="487.2" y1="366.8" x2="825.1" y2="366.8" xlink:href="#WhiteGradient"/>
    <linearGradient id="WhiteGradient-84" data-name="WhiteGradient" x1="116.3" y1="431.3" x2="836.8" y2="431.3" xlink:href="#WhiteGradient"/>
    <linearGradient id="WhiteGradient-85" data-name="WhiteGradient" x1="272.3" y1="342.8" x2="421.4" y2="342.8" xlink:href="#WhiteGradient"/>
    <linearGradient id="WhiteGradient-86" data-name="WhiteGradient" x1="281.1" y1="391.3" x2="539" y2="391.3" xlink:href="#WhiteGradient"/>
    <linearGradient id="WhiteGradient-87" data-name="WhiteGradient" x1="518.2" y1="313.6" x2="838" y2="313.6" xlink:href="#WhiteGradient"/>
    <linearGradient id="WhiteGradient-88" data-name="WhiteGradient" x1="101.9" y1="460.4" x2="845.8" y2="460.4" xlink:href="#WhiteGradient"/>
    <linearGradient id="linear-gradient" x1="202.4" y1="404" x2="311" y2="404" gradientUnits="userSpaceOnUse">
      <stop offset="0" stop-color="#c7e6e6"/>
      <stop offset="1" stop-color="#4a46a5"/>
    </linearGradient>
    <linearGradient id="linear-gradient-2" x1="442.4" y1="386.9" x2="492.5" y2="386.9" gradientUnits="userSpaceOnUse">
      <stop offset="0" stop-color="#f9e26e"/>
      <stop offset="1" stop-color="#ff8a3a"/>
    </linearGradient>
    <linearGradient id="linear-gradient-3" x1="529.8" y1="398.2" x2="592" y2="398.2" xlink:href="#linear-gradient-2"/>
    <linearGradient id="linear-gradient-4" x1="419.8" y1="395.1" x2="620.8" y2="395.1" xlink:href="#linear-gradient"/>
    <linearGradient id="linear-gradient-5" x1="149.5" y1="375.2" x2="760.2" y2="375.2" xlink:href="#linear-gradient-2"/>
    <linearGradient id="linear-gradient-6" x1="163.2" y1="415.3" x2="444" y2="415.3" gradientUnits="userSpaceOnUse">
      <stop offset=".3" stop-color="#382e88"/>
      <stop offset=".4" stop-color="#574976"/>
      <stop offset=".6" stop-color="#9e884d"/>
      <stop offset=".8" stop-color="#d2b630"/>
      <stop offset=".9" stop-color="#f2d21d"/>
      <stop offset="1" stop-color="#ffdd17"/>
    </linearGradient>
    <linearGradient id="linear-gradient-7" x1="372.2" y1="367.8" x2="810.2" y2="367.8" gradientUnits="userSpaceOnUse">
      <stop offset=".3" stop-color="#d81f28"/>
      <stop offset=".5" stop-color="#a92b50"/>
      <stop offset=".7" stop-color="#76397e"/>
      <stop offset=".9" stop-color="#56429a"/>
      <stop offset="1" stop-color="#4a46a5"/>
    </linearGradient>
    <linearGradient id="WhiteGradient-89" data-name="WhiteGradient" x1="648.5" y1="397" x2="828.2" y2="397" xlink:href="#WhiteGradient"/>
    <linearGradient id="WhiteGradient-90" data-name="WhiteGradient" x1="340" y1="508.8" x2="837.6" y2="508.8" xlink:href="#WhiteGradient"/>
    <linearGradient id="WhiteGradient-91" data-name="WhiteGradient" x1="213.9" y1="447.6" x2="838.7" y2="447.6" xlink:href="#WhiteGradient"/>
    <linearGradient id="linear-gradient-8" x1="101.1" y1="494.2" x2="622" y2="494.2" gradientUnits="userSpaceOnUse">
      <stop offset="0" stop-color="#eef91c"/>
      <stop offset=".4" stop-color="#ecf81c"/>
      <stop offset=".5" stop-color="#e5f71d"/>
      <stop offset=".5" stop-color="#e3f71e"/>
      <stop offset=".7" stop-color="#e1f51d"/>
      <stop offset=".8" stop-color="#daee1c"/>
      <stop offset=".8" stop-color="#cfe21b"/>
      <stop offset=".8" stop-color="#c0d119"/>
      <stop offset=".9" stop-color="#abba16"/>
      <stop offset=".9" stop-color="#929f13"/>
      <stop offset=".9" stop-color="#747e0f"/>
      <stop offset="1" stop-color="#51580a"/>
      <stop offset="1" stop-color="#2b2f05"/>
      <stop offset="1" stop-color="#000"/>
    </linearGradient>
    <linearGradient id="linear-gradient-9" x1="108.1" y1="391.2" x2="691.5" y2="391.2" xlink:href="#linear-gradient-8"/>
    <linearGradient id="WhiteGradient-92" data-name="WhiteGradient" x1="650.9" y1="457.3" x2="876.6" y2="457.3" xlink:href="#WhiteGradient"/>
    <linearGradient id="WhiteGradient-93" data-name="WhiteGradient" x1="646.3" y1="383" x2="754.3" y2="383" xlink:href="#WhiteGradient"/>
    <linearGradient id="WhiteGradient-94" data-name="WhiteGradient" x1="502" y1="409.9" x2="650.8" y2="409.9" xlink:href="#WhiteGradient"/>
    <linearGradient id="WhiteGradient-95" data-name="WhiteGradient" x1="535" y1="370" x2="641.7" y2="370" xlink:href="#WhiteGradient"/>
    <linearGradient id="WhiteGradient-96" data-name="WhiteGradient" x1="364.1" y1="365.5" x2="854.2" y2="365.5" xlink:href="#WhiteGradient"/>
    <linearGradient id="WhiteGradient-97" data-name="WhiteGradient" x1="380.6" y1="416" x2="651.4" y2="416" xlink:href="#WhiteGradient"/>
    <linearGradient id="WhiteGradient-98" data-name="WhiteGradient" x1="109.6" y1="413.7" x2="280.1" y2="413.7" xlink:href="#WhiteGradient"/>
    <linearGradient id="WhiteGradient-99" data-name="WhiteGradient" x1="275.3" y1="318.4" x2="523" y2="318.4" xlink:href="#WhiteGradient"/>
    <linearGradient id="WhiteGradient-100" data-name="WhiteGradient" x1="66.2" y1="486.8" x2="383.1" y2="486.8" xlink:href="#WhiteGradient"/>
    <linearGradient id="WhiteGradient-101" data-name="WhiteGradient" x1="-2994" y1="523.8" x2="545.4" y2="523.8" xlink:href="#WhiteGradient"/>
    <linearGradient id="WhiteGradient-102" data-name="WhiteGradient" x1="69.8" y1="490.3" x2="579.8" y2="490.3" xlink:href="#WhiteGradient"/>
    <linearGradient id="WhiteGradient-103" data-name="WhiteGradient" x1="412.5" y1="484.1" x2="2641.9" y2="484.1" xlink:href="#WhiteGradient"/>
    <linearGradient id="WhiteGradient-104" data-name="WhiteGradient" x1="461" y1="512.8" x2="1826" y2="512.8" xlink:href="#WhiteGradient"/>
    <linearGradient id="WhiteGradient-105" data-name="WhiteGradient" x1="-3034.5" y1="540.6" x2="3034.9" y2="540.6" xlink:href="#WhiteGradient"/>
    <linearGradient id="WhiteGradient-106" data-name="WhiteGradient" x1="604.9" y1="523.3" x2="888.2" y2="523.3" xlink:href="#WhiteGradient"/>
    <linearGradient id="WhiteGradient-107" data-name="WhiteGradient" x1="78.3" y1="513.4" x2="534.6" y2="513.4" xlink:href="#WhiteGradient"/>
    <linearGradient id="linear-gradient-10" x1="684.1" y1="303" x2="714.8" y2="303" gradientTransform="translate(0 662) scale(1 -1)" gradientUnits="userSpaceOnUse">
      <stop offset="0" stop-color="#bc1727"/>
      <stop offset=".5" stop-color="#b91727"/>
      <stop offset=".7" stop-color="#b11628"/>
      <stop offset="1" stop-color="#a31529"/>
      <stop offset="1" stop-color="#a01529"/>
    </linearGradient>
    <linearGradient id="linear-gradient-11" x1="580.2" y1="451.8" x2="614.2" y2="451.8" xlink:href="#linear-gradient-10"/>
    <linearGradient id="linear-gradient-12" x1="534.7" y1="278.6" x2="654.5" y2="278.6" xlink:href="#linear-gradient-10"/>
    <linearGradient id="linear-gradient-13" x1="210.9" y1="409.4" x2="1764.3" y2="409.4" gradientTransform="matrix(1,0,0,1,0,0)" xlink:href="#linear-gradient-10"/>
    <linearGradient id="linear-gradient-14" x1="147.7" y1="216.8" x2="424.8" y2="216.8" xlink:href="#linear-gradient-10"/>
    <linearGradient id="linear-gradient-15" x1="-52570.2" y1="423.5" x2="32124.8" y2="423.5" gradientTransform="matrix(1,0,0,1,0,0)" xlink:href="#linear-gradient-10"/>
    <linearGradient id="linear-gradient-16" x1="-5801.3" y1="323.9" x2="1511.3" y2="323.9" gradientTransform="matrix(1,0,0,1,0,0)" xlink:href="#linear-gradient-10"/>
    <linearGradient id="linear-gradient-17" x1="-27539.1" y1="481.5" x2="4386.8" y2="481.5" gradientTransform="matrix(1,0,0,1,0,0)" xlink:href="#linear-gradient-10"/>
    <linearGradient id="linear-gradient-18" x1="67.6" y1="517" x2="920.8" y2="517" gradientTransform="matrix(1,0,0,1,0,0)" xlink:href="#linear-gradient-10"/>
    <radialGradient id="radial-gradient" cx="529.5" cy="443.5" fx="529.5" fy="443.5" r="97.5" gradientUnits="userSpaceOnUse">
      <stop offset="0" stop-color="#aaedee"/>
      <stop offset=".5" stop-color="#c6f3f3"/>
      <stop offset="1" stop-color="#edfcfc"/>
    </radialGradient>
    <linearGradient id="linear-gradient-19" x1="115.3" y1="488.5" x2="698.5" y2="317.6" gradientUnits="userSpaceOnUse">
      <stop offset="0" stop-color="#6c3bd6"/>
      <stop offset=".3" stop-color="#8157df"/>
      <stop offset="1" stop-color="#b7a0f5"/>
      <stop offset="1" stop-color="#baa4f7"/>
    </linearGradient>
    <linearGradient id="linear-gradient-20" x1="279.4" y1="451" x2="632.7" y2="451" gradientUnits="userSpaceOnUse">
      <stop offset="0" stop-color="#6dd3f6"/>
      <stop offset="1" stop-color="#224a71"/>
    </linearGradient>
    <linearGradient id="linear-gradient-21" x1="130.8" y1="458.2" x2="719.7" y2="458.2" gradientUnits="userSpaceOnUse">
      <stop offset="0" stop-color="#fdc180"/>
      <stop offset="1" stop-color="#fc8747"/>
    </linearGradient>
  </defs>
  <g id="shoe26">
    <path id="shoe26_15" class="cls-21" d="M777.5,348.8c-2.1-2.3-4.4-1.5-7.4-.6l-29.5,9.7c-19,6.3-45.1,14.9-73.9,24.4-.8.3-1.6.5-2.4.8-20.6,6.8-46.8,15.6-54.9,18.1-33.2,10.9-53.9,17.7-54.9,18-13.5,4-24.6,4.7-32.1,2-4-1.4-7.7-4.3-10-7.7-3.5-5.3-4.3-12.4-2.5-21.3,1.2-5.7,3.8-12.7,6.9-18.5.8-1.4,1.5-2.9,1-4.5-.1-.4-.3-.8-.7-1.2-.9-1.2-2.5-1.9-4.2-1.8-2,.1-10.3,9.9-11.4,11.2-13.7,16.7-21.6,28.9-26.3,40.8-5.8,14.6-6.4,27.5-1.9,37.3,1.5,3.3,3.6,6.2,6.6,9.1,1.2,1.2,4.3,3.6,5.8,4.5,7,4.3,15.6,6.2,25.7,5.8.2,0,.3,0,.5,0,10.7-.5,23.2-3.7,37.2-9.5,5.4-2.2,8.5-3.7,19.8-9.2,14.8-7.2,32.4-15.8,51.1-24.9,23-11.2,47.6-23.2,70.3-34.3,2.9-1.4,5.8-2.8,8.6-4.2,21.5-10.5,40.7-19.8,54.6-26.6l20.9-10.2c2.2-1.1,3.9-1.9,4.1-4.3,0-1.1-.3-2.2-1.1-3Z"/>
    <path id="shoe26_14" class="cls-154" d="M620.1,431.4c-18.7,9.1-36.3,17.7-51.1,24.9-11.3,5.5-14.4,7-19.8,9.2-14,5.8-26.5,9-37.2,9.5-.2,0-.3,0-.5,0-10.1.4-18.7-1.5-25.7-5.8-1.5-.9-4.6-3.3-5.8-4.5-3-2.9-5.1-5.8-6.6-9.1-4.5-9.8-3.9-22.7,1.9-37.3,4.7-11.9,12.6-24.1,26.3-40.8,1.1-1.3,9.4-11.1,11.4-11.2,1.7-.1,3.2.6,4.2,1.8.3.4.5.8.7,1.2.6,1.6-.2,3.1-1,4.5-3.1,5.8-5.7,12.7-6.9,18.5-1.8,8.9-1,16,2.5,21.3,2.3,3.4,6,6.3,10,7.7,7.6,2.7,18.7,2,32.1-2,1-.3,21.7-7.1,54.9-18,8.1-2.5,34.3-11.3,54.9-18.1.8-.3,1.6-.5,2.4-.8-40-24.7-84.7-51.5-98.9-59.8-31.4,15.6-64.1,38.8-87.8,45.5-25.4,7.1-51.7,12.4-65.2,49.6-13.5,37.2-13.1,58.7-15,78.2,45.8-1.8,106.5-12.8,160.3-19.2,56.6-6.8,122.9-5.3,163.3-6.8,19.2-.7,49.5-.4,77.7.1-13.6-9.9-68.8-46.5-110.6-72.8-22.7,11.1-47.3,23.1-70.3,34.3Z"/>
    <path id="shoe26_13" class="cls-16" d="M404.4,409.2c6.5-17.5,22.2-35.1,44.8-41.6,22.5-6.5,14.6-6.2,54.9-23.1,40.3-16.9,54.6-33.2,76-40.8s58.3-9,77.4-5.6c-11-6.2-33.5-18.3-57.1-26.7s-55.3,16-69.6,25.3c-14.4,9.3-68.4,36.3-82.8,42.8-14.4,6.5-89.8,40.5-99.4,45-9.6,4.5-17.2,11.3-18.9,18.6-1.7,7.3-8.4,25.3-18.6,39.1-10.1,13.8-54.9,22.8-71.5,25.6-16.6,2.8-43.6,9.3-52.1,11.4s-9.6,4.7-5.6,5,16.6.6,35.2-1.6,47.9-6.5,68.4-9.9c20.6-3.4,44.5-6.5,60-8.8,15.5-2.4,18-1.9,22.2,3.2,3.4,4.1,11.6,13,19.4,22.2,0,0,0,0,0,0-5.1-6.1,10.8-62.3,17.3-79.9Z"/>
    <path id="shoe26_12" class="cls-120" d="M610,262.9c-25.2-12.8-43.2,0-61.6,12.4-18.4,12.4-74,42.4-98.4,54.7-24.4,12.3-94.6,42.2-111.5,50-16.9,7.9-19.5,26.3-28.9,43.6-9.4,17.3-28.5,25.5-54.4,31.9-25.9,6.4-102.5,21.4-124.6,24.8-22.1,3.4-36,3.4-45.2-3.2-.2,5.4,0,10.3,4.1,14.3,9.3,8.9,18.7,9.2,54.3,17.9,26.5,6.5,41.6,6.7,60.3,5.2,2.2-.2,4.4-.4,6.7-.6,0,0,0,0,0,0h0c5.4-.5,11.2-1.1,17.7-1.7,33.2-3.1,87.8-7.3,118.5-9.6,30.7-2.3,45.6-1.7,45.6-1.7v-4.8c-.1-.2-.3-.3-.4-.5-.7-.9-2.4-2.9-5.2-6.3-7.8-9.2-16-18.1-19.4-22.2-4.2-5.1-6.8-5.6-22.2-3.2-15.5,2.4-39.4,5.5-60,8.8-20.6,3.4-49.8,7.7-68.4,9.9s-31.3,1.9-35.2,1.6-2.8-2.9,5.6-5,35.5-8.6,52.1-11.4c16.6-2.8,61.4-11.8,71.5-25.6,10.1-13.8,16.9-31.8,18.6-39.1,1.7-7.3,9.3-14.1,18.9-18.6,9.6-4.5,85-38.6,99.4-45,14.4-6.5,68.4-33.5,82.8-42.8,14.4-9.3,46.1-33.8,69.6-25.3s46.1,20.6,57.1,26.7c-19.1-3.4-56-2-77.4,5.6s-35.8,23.9-76,40.8c-40.3,16.9-32.4,16.6-54.9,23.1-22.5,6.5-38.3,24.1-44.8,41.6s-22.3,73.8-17.3,79.9c0,0,0,0,0,0,1.8,2.1,3.6,4.2,5.2,6.3.3.3.4.5.4.5,2.3,0,4.6-.1,6.9-.2,1.9-19.4,1.5-41,15-78.2,13.5-37.2,39.8-42.4,65.2-49.6,25.4-7.1,61.3-33.4,94.7-48.8,33.4-15.4,88.6-10.1,131.6-4.5h0c-29.6-14.7-75.2-41.1-96.3-51.8Z"/>
    <path id="shoe26_11" class="cls-148" d="M618.6,254c0-24.5-12.3-78.2-20.6-90.2-4.9-7.2-8.9-8-14.3-4.3-3.7,2.6-8,7.3-13.8,13.7-9.3,10.2-48.1,63.1-70.6,81.6-22.5,18.5-81.5,53.9-108.5,69.7-27,15.8-93.9,49.9-118.7,60.3,6.2,6.8,35.2-2.8,66.4-13.2,31.3-10.4,88.4-38,118.3-53.2,34-17.3,70.2-40.2,107-65.6,9.5-6.6,19-8.6,28.9-7.5,8.3,1,16.9,4.2,26,8.8,0,0,0,0,0,0Z"/>
    <path id="shoe26_10" class="cls-136" d="M629,259.7c0-9.9-1.6-23.3-4.5-47.8-2.9-24.5-10.9-45.6-16.6-54.5-8.8-13.8-18.2-3-24.3,2.2h0c5.4-3.8,9.4-2.9,14.3,4.3,8.3,12,20.6,65.7,20.6,90.2,0,0,0,0,0,0,3.4,1.7,6.8,3.6,10.4,5.7,0,0,0,0,0,0Z"/>
    <path id="shoe26_9" class="cls-136" d="M781.1,262.6c-10.7,11.5-19.7,37.7-22.2,46.2s-3.4,14.9-20,10.7c-7.5-1.9-17.8-6.3-30.3-12.7-15.2-7.8-33.6-18.5-53.9-31.2-9.1-5.7-17.7-11.1-25.7-15.8-3.5-2-7-4-10.4-5.7-1.1-.5-2.1-1.1-3.2-1.6,0,0-.2,0-.3-.1-1-.5-2-.9-3-1.4-.1,0-.2-.1-.4-.2-1-.4-2-.9-3-1.2,0,0-.2,0-.3-.1-1-.4-2-.8-3.1-1.1,0,0,0,0-.1,0-1-.3-2-.7-3-1-.3,0-.5-.2-.8-.2-.7-.2-1.4-.4-2.2-.6-.3,0-.6-.2-1-.2-.7-.2-1.3-.3-2-.4-.3,0-.6-.1-1-.2-.7-.1-1.4-.2-2.1-.3-.2,0-.4,0-.6,0h0c-9.9-1.1-19.3.9-28.9,7.5-36.8,25.4-73,48.3-107,65.6-29.8,15.2-87,42.8-118.3,53.2-31.3,10.4-60.3,20-66.4,13.2-20.8,7.9-68.4,29.6-111.5,43.4-43.1,13.8-70.8,26.7-78.6,35.6,0,0,0,0,0,0,2.4.4,3.8,4,3.7,8.7,0,1.6-.1,3.1-.2,4.6,9.1,6.6,23,6.6,45.2,3.2,22.1-3.4,98.7-18.4,124.6-24.8,25.9-6.4,45-14.6,54.4-31.9,4.5-8.2,7.4-16.7,11.1-24.2,4-8.2,9-15.2,17.8-19.3,16.9-7.9,87.1-37.8,111.5-50,24.4-12.3,80-42.3,98.4-54.7,14.8-10,29.4-20.2,47.6-17.1,4.4.7,9.1,2.2,14,4.7,1,.5,2.2,1.1,3.3,1.7,1.4.7,2.9,1.5,4.5,2.4,23.1,12.3,62.1,34.6,88.4,47.7,5.8,2.9,11,5.3,15.2,7.1,25.9,10.9,61.6,8.6,67.6-6,6-14.6,2.4-54.6,16.2-61.1-8-2.4-17.1.1-24.2,7.8Z"/>
    <path id="shoe26_8" class="cls-148" d="M839.1,306.8c-7.6-23.7-13.8-32.7-22.8-44.2-3.1-3.9-6.9-6.5-11-7.8-13.8,6.5-10.2,46.4-16.2,61.1-6,14.6-41.7,16.9-67.6,6-4.2-1.8-9.4-4.2-15.2-7.1h0c-43-5.6-98.1-10.9-131.6,4.5-2.3,1.1-4.6,2.2-6.9,3.3,14.3,8.2,58.9,35.1,98.9,59.8,28.7-9.5,54.8-18.1,73.9-24.4l29.5-9.7c3-1,5.3-1.7,7.4.6.8.8,1.1,1.9,1.1,3-.2,2.4-1.8,3.2-4.1,4.3l-20.9,10.2c-13.9,6.8-33.1,16.2-54.6,26.6-2.8,1.4-5.7,2.8-8.6,4.2,41.8,26.3,97.1,62.8,110.6,72.8,2.6,0,5.1,0,7.6.2h5.5c6.6-5.2,33.6-31.5,38.3-37.6s10.7-13.1,11.8-25.5c-4.1-23.1-17.6-76.6-25.2-100.2Z"/>
    <path id="shoe26_7" class="cls-112" d="M864.3,407c-1.1,12.4-7.2,19.4-11.8,25.5s-31.7,32.4-38.3,37.7h0c16.2.3,31,.7,41.5,1,5.4.1,9.8.2,12.5.3,4.2-22.7,1.1-48.3-3.9-64.5Z"/>
    <path id="shoe26_6" class="cls-112" d="M871.8,471.5c-.8,0-1.6,0-2.4,0-.3,0-.7,0-1.2,0-2.8,0-7.1-.1-12.5-.3-1.9,0-4-.1-6.2-.2-1.4,0-2.8,0-4.3-.1-1,0-2,0-3.1,0-.7,0-1.4,0-2.1,0-.2,0-.5,0-.7,0-.7,0-1.4,0-2.1,0,0,0,0,0,0,0-.7,0-1.4,0-2.1,0-.3,0-.6,0-.9,0-.8,0-1.5,0-2.3,0-.2,0-.3,0-.5,0-.7,0-1.4,0-2.1,0-.2,0-.4,0-.6,0-.7,0-1.4,0-2.2,0-.2,0-.4,0-.5,0-.9,0-1.7,0-2.6,0-.2,0-.3,0-.5,0-.7,0-1.5,0-2.2,0-.2,0-.5,0-.7,0-.7,0-1.5,0-2.2,0-.2,0-.4,0-.6,0-.9,0-1.9,0-2.8,0h-5.5c.3,0,.5.2.8.4,0,0,.1,0,.2.1.3.2.6.4.9.6,0,0,0,0,0,0,.3.2.6.4,1,.6,0,0,.2.1.2.2.3.2.7.4,1,.7,0,0,0,0,0,0,.3.2.7.5,1.1.7,0,0,.2.1.3.2.4.2.7.5,1.1.8,0,0,0,0,0,0,.4.3.8.6,1.2.8,0,0,.2.1.3.2.8.6,1.7,1.2,2.6,1.8.1,0,.2.2.3.2.4.3.8.6,1.2.9,0,0,0,0,.1,0,.4.3.9.6,1.4,1,.1,0,.2.2.4.3.5.3.9.7,1.4,1,0,0,0,0,0,0,.5.4,1,.7,1.5,1.1.1,0,.2.2.3.2,1,.7,2,1.4,3,2.2.1,0,.3.2.4.3.5.4,1,.7,1.5,1.1,0,0,0,0,0,0,.5.4,1,.8,1.5,1.1.1,0,.2.2.4.3,1,.8,2.1,1.5,3.1,2.3,0,0,.2.1.3.2.5.4,1,.7,1.5,1.1,0,0,0,0,0,0,.5.4,1,.8,1.5,1.2,0,0,.2.1.3.2.5.4,1,.8,1.5,1.1,0,0,0,0,0,0,.5.4,1,.8,1.6,1.2,0,0,.1,0,.2.1,1,.8,2.1,1.6,3.1,2.3,0,0,0,0,.1.1,1,.8,2,1.5,3,2.2,0,0,0,0,0,0,1,.7,1.9,1.5,2.8,2.1,0,0,0,0,0,0,.4.3.9.7,1.3,1,0,0,0,0,0,0,.4.3.9.7,1.3,1,0,0,0,0,0,0,.4.3.8.6,1.2.9,4.3,3.3,7.3,5.6,7.7,6,2.2,1.7,4.2,3.2,6.9,3.1,3.7,0,13.5,0,13.5,0,2.3-12.6,3.6-26.2,3.6-37.3s-5.5-4.7-15.6-4.7Z"/>
    <path id="shoe26_5" class="cls-16" d="M618.6,484.4c-64.9,3-165.1,20.6-189.2,22.5,25.9,4.5,72.1,13.5,80,15.4,7.9,1.9,13.1,1.9,33,0,19.9-1.9,66.4-4.9,89.7-5.3,23.3-.4,73.6-2.3,100.6-.4,14.6-10.5,35.3-24.8,57.1-32.3-33.4-4.5-106.3-3-171.2,0Z"/>
    <path id="shoe26_4" class="cls-182" d="M870.4,513.4c-2.7,0-4.7-1.4-6.9-3.1-.5-.4-3.4-2.7-7.7-6-2-1.5-4.3-3.3-6.7-5.1,0,0,0,0,0,0,0,0,0,0,0,0,0,0,0,0,0,0,0,0,0,0,0,0,0,0,0,0,0,0-1-.8-2-1.5-3.1-2.3,0,0,0,0,0,0,0,0,0,0,0,0-1.1-.8-2.1-1.6-3.2-2.4,0,0,0,0,0,0-.5-.4-1-.8-1.6-1.2,0,0,0,0,0,0-.3-.3-.7-.5-1-.8-.2-.2-.5-.4-.7-.5,0,0,0,0,0,0-.5-.4-1-.8-1.5-1.2,0,0,0,0,0,0h0c0,0,0,0,0,0-.5-.4-1-.7-1.5-1.1,0,0,0,0,0,0-1.2-.9-2.5-1.8-3.7-2.7h0c-.2-.2-.5-.4-.7-.5-.3-.2-.6-.4-.9-.6,0,0,0,0,0,0-.5-.4-1-.7-1.5-1.1,0,0,0,0,0,0-1.4-1-2.8-2.1-4.2-3.1-.3-.2-.6-.5-.9-.7h0s0,0,0,0c0,0,0,0,0,0-.3-.2-.5-.4-.8-.6-3.3-2.4-6.3-4.5-8.9-6.3,0,0-.2-.1-.3-.2,0,0,0,0,0,0-.9-.6-1.8-1.2-2.6-1.8,0,0,0,0,0,0-.3-.2-.6-.4-1-.6,0,0,0,0,0,0-.3-.2-.6-.4-.9-.6,0,0,0,0,0,0,0,0-.1,0-.2-.1,0,0,0,0,0,0-.3-.2-.5-.3-.8-.5-30.3-.6-64.4-1.1-85.3-.3-40.4,1.5-106.7,0-163.3,6.8s-120.8,18.6-167.2,19.4v4.8c24.6,7.7,146.8,48.1,158.8,52.6.7.3,1.4.5,2,.8.2,0,.4.2.7.3.4.2.8.3,1.2.5.2.1.5.2.7.3.3.1.7.3,1,.4.2.1.5.2.7.3.3.1.6.3.9.4.2.1.5.2.7.3.3.1.5.3.8.4.2.1.4.2.6.3.2.1.5.3.7.4.2.1.4.2.5.3.4.2.7.5,1,.7,0,0,0,0,0,0h0c27,.2,84,2,125.7,0s120.4-9.7,142.7-12.6c9.2-1.2,17.4-2.3,24.2-3.3,9.6-1.4,16.7-2.8,20.9-4.3.9-1.6,1.7-3.2,2.2-4.8,2-5.9,3.7-13,5-20.6,0,0-9.8,0-13.5,0ZM732.8,516.7c-27-1.9-77.3,0-100.6.4-23.3.4-69.8,3.4-89.7,5.3-19.9,1.9-25.2,1.9-33,0-7.9-1.9-54.1-10.9-80-15.4,24-1.9,124.3-19.5,189.2-22.5,64.9-3,137.8-4.5,171.2,0-21.8,7.5-42.4,21.8-57.1,32.3Z"/>
    <path id="shoe26_3" class="cls-141" d="M567.8,569c18.4.4,37.6.8,57.3,1,103.2,1.1,164.1-.8,193.3-1.9,26.3-1,49.9-15.1,58.2-29.3-7.2,2.5-23,4.7-45.1,7.6-22.2,2.8-101,10.5-142.7,12.6s-98.7.2-125.7,0h0c3.3,2.5,4.6,5.5,4.6,10.1Z"/>
    <path id="shoe26_2" class="cls-113" d="M551.7,553.3c-12-4.5-134.2-44.9-158.8-52.6,0,0-14.9-.6-45.6,1.7-30.7,2.3-85.3,6.5-118.5,9.6-6.5.6-12.3,1.2-17.7,1.7,0,0,0,0,0,0-2.1.1-4.3.3-6.7.6-21.5,2.3-53.7,9.2-71,11.7-19.1,2.8-36.5,4.8-48.5,0,13.9,9.9,41.4,21.4,86.4,30,62.7,12,156.9,10.1,209.9,9,42.8-.9,108.5,2.1,186.8,3.9,0-8.1-4.1-11.2-16.1-15.7Z"/>
    <path id="shoe26_1" class="cls-113" d="M144,509.2c-35.6-8.7-45-9-54.3-17.9-5.3-5.1-4.2-11.8-3.9-18.9.1-4.7-1.3-8.3-3.7-8.7-1.5-.2-3.4.8-5.4,3.7-5.3,7.5-7.9,37.2-2.3,48.1.3.7.8,1.4,1.3,2.1,1.9,2.6,4.9,5.4,9.1,8.4,12,4.8,29.4,2.8,48.5,0,17.2-2.5,49.4-9.4,71-11.7-18.7,1.5-33.7,1.3-60.3-5.2Z"/>
  </g>
</svg>