<?xml version="1.0" encoding="UTF-8"?>
<svg id="shapes" xmlns="http://www.w3.org/2000/svg" xmlns:xlink="http://www.w3.org/1999/xlink" version="1.1" viewBox="0 0 960 660">
  <!-- Generator: Adobe Illustrator 29.6.1, SVG Export Plug-In . SVG Version: 2.1.1 Build 9)  -->
  <defs>
    <style>
      .st0 {
        fill: url(#linear-gradient2);
      }

      .st1 {
        fill: url(#linear-gradient1);
      }

      .st2 {
        fill: url(#linear-gradient3);
      }

      .st3 {
        fill: url(#linear-gradient5);
      }

      .st4 {
        fill: url(#linear-gradient4);
      }

      .st5 {
        fill: url(#linear-gradient);
      }

      .st6 {
        fill: #fff;
      }

      .st7 {
        fill: #f9f9f9;
      }
    </style>
    <linearGradient id="linear-gradient" x1="118.9" y1="363.3" x2="669.8" y2="363.3" gradientUnits="userSpaceOnUse">
      <stop offset="0" stop-color="#fcfafb"/>
      <stop offset=".2" stop-color="#f5faff"/>
      <stop offset=".5" stop-color="#f6fff0"/>
      <stop offset=".7" stop-color="#fffcf0"/>
      <stop offset="1" stop-color="#fcf8ff"/>
    </linearGradient>
    <linearGradient id="linear-gradient1" x1="151.9" y1="442.5" x2="388.2" y2="442.5" xlink:href="#linear-gradient"/>
    <linearGradient id="linear-gradient2" x1="344.6" y1="443.8" x2="558.2" y2="443.8" xlink:href="#linear-gradient"/>
    <linearGradient id="linear-gradient3" x1="403.1" y1="424.6" x2="654.3" y2="424.6" xlink:href="#linear-gradient"/>
    <linearGradient id="linear-gradient4" x1="416.2" y1="376.9" x2="767.5" y2="376.9" xlink:href="#linear-gradient"/>
    <linearGradient id="linear-gradient5" x1="577.1" y1="385.8" x2="820" y2="385.8" xlink:href="#linear-gradient"/>
  </defs>
  <g id="shoe33">
    <path id="shoe33_x5F_25" class="st6" d="M621.9,222.9c-21-21.5-35.1-9.8-49,1.5-13.9,11.3-29,23.7-57.7,40.2-28.7,16.5-194.9,97.6-258.8,119.6,5.9,3.1,10.2,6.8,34.4,5.7,24.3-1,64.9-13.1,97.4-25,32.4-11.9,116.9-52.4,155-79,38.1-26.5,66.9-24,78.8-15.5,11.9,8.5,33.9,26.3,47.7,37.8,1.6,1.6,3.7,3.2,6.1,5-2.4-27.9-33-68.9-54-90.3Z"/>
    <path id="shoe33_x5F_24" class="st6" d="M646.9,297.9c-9.6-4.4-26.9-12.6-38.4-17.5-11.6-5-36.8-.6-40.5,1.9-3.8,2.5-2.2,6.3-1.6,7.7-4.6-1.9-6.3-3.6-12.3-1.9s-30,15.7-32.7,17.9c-2.8,2.2-1.9,5.5-2.2,7.2-3.3-1.9-7.7-1.9-12.1,0-4.4,1.9-31.1,16.2-33.3,17.6-2.2,1.4-3.6,3.9-3.3,6.3-3.3-1.7-4.4-3-7.4-1.4s-28.3,15.4-37.7,21.4-16.5,15.4,7.7,7.9,111.3-44,124.3-50.9,24.8-14.2,29.2-21.2c11.6,8,45.7,10.4,56.9,11.6,10.4,1.1,11.4-3.1,3.5-6.7Z"/>
    <path id="shoe33_x5F_23" class="st6" d="M368.8,377.2c-6.2,2-35,10.7-44,15s-13.6,6.8-6.5,8.8c7.1,2,23.4-2.5,27.4-6.2,4-3.7,8.5-5.9,14.1-4,5.6,2,15.5,1.1,24-1.7,8.5-2.8,14.1-12.8,13.3-17.5-.8-4.8-22,3.7-28.2,5.6Z"/>
    <path id="shoe33_x5F_22" class="st5" d="M622.1,270.5c-11.9-8.5-40.7-11-78.8,15.5-38.1,26.5-122.6,67-155,79s-73.1,24-97.4,25c-24.3,1-28.5-2.6-34.4-5.7-10.2,4-37,16.4-66.9,22.6-29.9,6.2-71.2,20.9-70.6,51.6,0,0,0,0,0,0,.8,0,1.6,0,2.5.1,3.7.3,16.3,1.9,30.5,3.6,16.4-43.9,64.4-36.9,119.7-33.5,55.3,3.4,97.4-24.6,107.9-29.4,0,0,0,0,0,0,.2-.2.5-.3.7-.5,1.2-.8,2.6-1.6,4.1-2.2,4.5-2,15.7-5.2,19-6.4,0,0,0,0,0,0-2.2-10.9,8.6-7.3,13.9-4.2-2.6-4.4-.1-9.1,5.8-11.4,11-4.2,42.1-15,53.4-19.2,11.3-4.2,90.6-35.3,99.4-42.6,8.8-7.3,11.9-9.9,26-7.9,14.1,2,56.5,7.1,68,3.7-13.8-11.6-35.9-29.4-47.7-37.8ZM383.8,389.1c-8.5,2.8-18.4,3.7-24,1.7-5.6-2-10.2.3-14.1,4-4,3.7-20.3,8.2-27.4,6.2-7.1-2-2.5-4.5,6.5-8.8s37.8-13,44-15c6.2-2,27.4-10.4,28.2-5.6.8,4.7-4.8,14.7-13.3,17.5ZM643.4,304.6c-11.3-1.2-45.3-3.6-56.9-11.6-4.4,7-16.3,14.3-29.2,21.2s-100.1,43.4-124.3,50.9-17.1-1.9-7.7-7.9,34.7-19.8,37.7-21.4,4.1-.3,7.4,1.4c-.3-2.5,1.1-5,3.3-6.3,2.2-1.4,28.9-15.7,33.3-17.6,4.4-1.9,8.8-1.9,12.1,0,.3-1.7-.6-5,2.2-7.2,2.8-2.2,26.7-16.2,32.7-17.9s7.7,0,12.3,1.9c-.6-1.4-2.2-5.2,1.6-7.7,3.8-2.5,29-6.9,40.5-1.9,11.6,5,28.8,13.1,38.4,17.5,7.9,3.6,6.9,7.8-3.5,6.7Z"/>
    <path id="shoe33_x5F_21" class="st1" d="M388.2,426h0c0-.1,0-.3,0-.4,0-.1,0-.2,0-.4,0-.6,0-1.3,0-1.9,0,0,0,0,0-.1,0-.8-.1-1.6-.2-2.4,0,0,0,0,0,0-.3-2.3-.7-4.4-1.3-6.2,0,0,0,0,0,0-.2-.6-.4-1.1-.6-1.7,0,0,0,0,0,0-.6-1.6-1.3-2.9-2.1-4.1,0,0,0,0,0,0-.2-.4-.5-.7-.7-1,0,0,0,0,0,0-.2-.3-.5-.6-.7-.9,0,0,0,0,0,0-.5-.6-1-1-1.4-1.5,0,0,0,0,0,0-.2-.2-.4-.4-.6-.5,0,0,0,0,0,0-.2-.2-.4-.3-.6-.4,0,0,0,0,0,0-.2-.1-.4-.3-.5-.4-2.1-1.4-1.3-3,.6-4.6,0,0,0,0,0,0-10.5,4.9-52.6,32.8-107.9,29.4-55.3-3.4-103.4-10.4-119.7,33.5,10.4,1.2,21.6,2.5,30.8,3.5,14.7,1.5,64.7,6.5,102.5,10.1,18.2,1.7,33.6,3.2,40.9,3.8,11,.9,16.4,3.4,18.4,6.5h0c26.7-13.8,41.7-33.3,43.4-53.4.2-2.4.3-4.6.2-6.6Z"/>
    <path id="shoe33_x5F_20" class="st6" d="M485,460.8c-16-8.5-67.1-36.8-75.3-42.6-8.2-5.7-16.9-12.5-13,3,3.1,12,20.6,41.8,47.4,48.8,26.8,7.1,36.7,4.8,44.5,4,7.8-.8,12.4-4.8-3.6-13.3Z"/>
    <path id="shoe33_x5F_19" class="st0" d="M558.2,466.5c-25.8-3.3-64.9-16.8-82.9-24.1-13.5-5.4-41.7-18.8-58.2-32.6-.2-.1-.3-.3-.5-.4-.5-.5-1.1-.9-1.6-1.4-.1-.1-.3-.3-.4-.4-.5-.5-1-.9-1.5-1.4-.1-.1-.2-.2-.3-.3-.5-.5-1-1-1.5-1.5,0,0-.1-.1-.2-.2-.5-.5-.9-1-1.3-1.4,0,0-.1-.1-.2-.2-.4-.5-.8-1-1.2-1.5,0,0-.1-.2-.2-.3-.4-.5-.7-1-1-1.5,0,0-.1-.2-.2-.3-.3-.5-.6-1-.9-1.5,0,0,0-.1-.1-.2-.3-.5-.5-1-.7-1.5-1-2.3-1.5-4.2-1.9-5.8,0,0,0,0,0,0-3.3,1.2-14.5,4.4-19,6.4-1.8.8-3.5,1.7-4.8,2.7-1.9,1.5-2.7,3.2-.6,4.6,3,2,9,7.3,9.3,22.2,0,2,0,4.2-.2,6.6-1.7,20-16.7,39.5-43.4,53.4h0c1.4,2.1,1.2,4.6.2,7,.5,0,.8,0,.8,0l34.8,4,5.5.6h0c19.1-8.4,39.7-15.7,53.2-14.5,16,1.4,32.1,6.6,45.9,13.3,17.7-7.5,44.4-19.8,73.1-29.9,0,0,0,0,0,0ZM488.7,474c-7.8.8-17.6,3.1-44.5-4-23.3-6.1-39.6-29.5-45.5-43.3-.8-1.8-1.4-3.5-1.8-5,0-.2-.1-.4-.2-.5-1.6-6.4-1.1-9,.6-9.5,2.1-.6,6.1,2,10.1,4.9.7.5,1.5,1,2.2,1.6,8.2,5.7,59.3,34.1,75.3,42.6,16,8.5,11.4,12.4,3.6,13.3Z"/>
    <path id="shoe33_x5F_18" class="st6" d="M450.1,419.8c16.8,8.2,48,14.6,71.7,18.2,8.9,1.3,16.9,2.3,22.6,2.7,20.9,1.7,32.6-3.5,3.6-10.9-24.4-6.3-62.8-13.5-83-16.4-3.8-.5-6.9-.9-9.2-1.1-13.1-1.2-28.9-3.7-5.7,7.6Z"/>
    <path id="shoe33_x5F_17" class="st2" d="M573.5,417.3c-17.4-4.4-91-15.2-125-20.4-.6,0-1.1-.2-1.6-.2-.1,0-.3,0-.4,0-.5,0-1-.2-1.5-.2,0,0-.2,0-.2,0-.5,0-.9-.1-1.4-.2-.1,0-.2,0-.4,0-.4,0-.8-.1-1.2-.2-.1,0-.2,0-.4,0-.4,0-.7-.1-1.1-.2-.2,0-.3,0-.5,0-.4,0-.7-.1-1.1-.2,0,0-.2,0-.3,0-.3,0-.6-.1-1-.2-.1,0-.2,0-.4,0-.4,0-.8-.1-1.2-.2-10.6-1.7-16.5-5.4-18.7-9.2-5.3-3.1-16.1-6.7-13.9,4.2.3,1.6.9,3.5,1.9,5.8,2.1,5,7,10.2,13.5,15.4,16.7,13.3,43.5,26,56.5,31.2,18.1,7.3,57.1,20.8,82.9,24.1,0,0,0,0,0,0,5.5-1.9,11.1-3.8,16.7-5.5,12.6-3.9,25.3-7,37.6-9,11.8-1.9,26.4-3.9,41.8-5.6-13-8.7-60.7-24-80.8-29.1ZM544.4,440.7c-5.7-.5-13.6-1.4-22.6-2.7-23.8-3.5-54.9-10-71.7-18.2-23.2-11.3-7.4-8.8,5.7-7.6,2.3.2,5.4.6,9.2,1.1,20.1,2.9,58.6,10.2,83,16.4,29,7.4,17.3,12.6-3.6,10.9Z"/>
    <path id="shoe33_x5F_16" class="st6" d="M526.9,365.3c-4.6.3-9.4,1-14.4,2-1.6.3-3.2.6-4.7,1-20.4,4.3-31.8,8.1-39.2,10.9-3.5,1.3-6.1,2.4-8.3,3.1-3.5,1.2-5.6,2.4-3.7,3.7,1.2.8,4.2,1.6,9.7,2.4,2,.3,4.4.6,7.1.9,2,.2,4.2.4,6.7.7,28.3,2.5,96.3,8.5,118.6,12.1s61.8,12.4,75.7,15.2,15.5-1.1,0-7.6c-15.6-6.5-64.1-26.2-83.9-32.7-16.8-5.5-37.1-13.5-63.5-11.6Z"/>
    <path id="shoe33_x5F_15" class="st4" d="M748.3,407.7c-30.2-9-121.7-29.8-156.7-46.1-7.8-3.6-12.1-6.7-13.7-9.3-5.6-9,20.4-12.2,36.8-12.6,2.2,0,4.7-.1,7.4-.2,18.2-.4,44.6-1.5,56.2-10.6h0c0,0,0,0,.1-.1.2-.1.3-.3.5-.4.2-.2.4-.4.6-.6.2-.1.3-.3.5-.4.2-.2.4-.5.7-.7.1-.1.2-.2.3-.4.3-.4.6-.7.8-1.1,0-.1.2-.3.2-.4.2-.3.3-.6.5-.9,0-.1.2-.3.2-.5.1-.3.3-.6.4-.9,0-.1.1-.3.2-.4.2-.4.3-.9.4-1.4.1-.6.3-1.2.5-1.7-3.1-1.9-6-3.9-8.6-5.7-2.4-1.7-4.4-3.4-6.1-5-11.6,3.4-53.9-1.7-68-3.7-14.1-2-17.2.6-26,7.9-8.8,7.3-88.1,38.4-99.4,42.6-11.3,4.2-42.4,15-53.4,19.2-5.9,2.3-8.3,7-5.8,11.4.8,1.4,2.1,2.7,3.9,4,3.2,2.2,8.1,4.1,14.8,5.2,3,.5,7.3,1.1,12.5,1.9,34.1,5.2,107.6,16,125,20.4,20,5.1,67.8,20.4,80.8,29.1,3.7-.4,7.4-.8,11.2-1.2,30.8-3,62.7-4.3,80.3,0,1.9.5,3.6,1,5.2,1.6,2.3.9,4.1,1.9,5.5,3.1,1.7-3.3,3.5-6.5,5.1-9.5.8-1.5,1.6-3,2.3-4.4,6.1-12.4,7-21.6-15.5-28.3ZM674.3,417.3c-13.8-2.8-53.4-11.6-75.7-15.2s-90.4-9.6-118.6-12.1c-2.5-.2-4.7-.4-6.7-.7-2.7-.3-5.1-.6-7.1-.9-5.5-.8-8.5-1.6-9.7-2.4-1.9-1.2.2-2.4,3.7-3.7,2.2-.8,4.8-1.8,8.3-3.1,7.4-2.8,18.8-6.6,39.2-10.9,1.5-.3,3.1-.6,4.7-1,5-1,9.8-1.6,14.4-2,26.4-1.9,46.7,6.1,63.5,11.6,19.8,6.5,68.2,26.2,83.9,32.7,15.5,6.5,13.8,10.4,0,7.6Z"/>
    <path id="shoe33_x5F_14" class="st7" d="M723.5,325.7c21.9,1.1,26.3-39.1,29.7-50,3.4-10.9-9.4-15.8-18.3-6-8.9,9.8-33.3,30.9-50.5,49.4,4.4,2.7,9,5.4,13.5,7.9.9-2.2,3.6-2.4,25.5-1.3Z"/>
    <path id="shoe33_x5F_13" class="st6" d="M747.2,247c-22.9,10.5-52.8,38.4-71.4,66.2,2.6,1.9,5.5,3.8,8.6,5.7,17.2-18.5,41.6-39.6,50.5-49.4,8.9-9.8,21.7-4.9,18.3,6-3.4,10.9-7.8,51.1-29.7,50-21.9-1.1-24.6-.9-25.5,1.3,5.8,3.2,11.2,6.2,15.3,8.5,14.2,7.2,39.4,8.5,56.5,3.5,2.3-.7,4.5-1.5,6.4-2.4,16.7-7.6,19.5-31.6,22-43.2,5.2-37.6-28.1-56.8-51.1-46.3Z"/>
    <path id="shoe33_x5F_12" class="st6" d="M826.6,378.4c-.3-6.4-.7-11.1-1-14.2-.6-6.2-6.5-14.1-9.9-17.2-3.4-3.1-4-8.8-2.5-13.3,1.4-4.5-.3-20.9-7.6-25.7-2.3-5.1-5.6-11.6-7.3-14.7-2.5,11.6-5.4,35.6-22,43.2-2,.9-4.1,1.7-6.4,2.4-17.2,5-42.3,3.7-56.5-3.5l3.9,5.5,6.3,9.1h0c1.7,1.8,3.6,3.6,5.7,5.4,0,0,.1,0,.2.1,1.4,1.1,2.8,2.3,4.4,3.3,0,0,0,0,.1,0,.7.5,1.4,1,2.1,1.4.1,0,.2.2.4.2,1.6,1,3.2,2,5,2.9.1,0,.3.1.4.2.7.4,1.5.7,2.2,1.1.2,0,.4.2.6.3.9.4,1.7.8,2.7,1.2,0,0,0,0,.1,0,.9.4,1.9.8,2.9,1.1.2,0,.5.2.7.3.8.3,1.5.5,2.3.8.3,0,.6.2.8.3,1,.3,2,.6,3,.9,0,0,.1,0,.2,0,1.1.3,2.2.6,3.3.8.3,0,.6.1.9.2.8.2,1.7.4,2.5.5.3,0,.7.1,1,.2,1.2.2,2.3.4,3.5.6,31.9,4.8,58.2,5.9,49.9,57.7,4.5-8.4,6.7-19.1,8.3-27.8.3-9.5.1-17.4-.1-23.6Z"/>
    <path id="shoe33_x5F_11" class="st6" d="M687.6,350.4c-16.4.4-56.8,2.5-63.5,4.5-6.8,2-2,5.6,8.5,8.8,10.4,3.1,22,0,35-2.1,13-2.2,38.1-11.6,20-11.2Z"/>
    <path id="shoe33_x5F_10" class="st3" d="M768.6,372.1c-1.2-.2-2.4-.4-3.5-.6-.3,0-.7-.1-1-.2-.9-.2-1.7-.3-2.5-.5-.3,0-.6-.1-.9-.2-1.1-.3-2.2-.5-3.3-.8,0,0-.1,0-.2,0-1-.3-2-.6-3-.9-.3,0-.6-.2-.8-.3-.8-.3-1.6-.5-2.3-.8-.2,0-.5-.2-.7-.3-1-.4-2-.7-2.9-1.1,0,0,0,0-.1,0-.9-.4-1.8-.8-2.7-1.2-.2,0-.4-.2-.6-.3-.8-.4-1.5-.7-2.2-1.1-.1,0-.3-.1-.4-.2-1.7-.9-3.4-1.9-5-2.9-.1,0-.3-.2-.4-.2-.7-.5-1.5-.9-2.1-1.4,0,0,0,0-.1,0-1.5-1.1-3-2.2-4.4-3.3,0,0-.1,0-.2-.1-2.1-1.7-4-3.5-5.7-5.4h0s-6.3-9.1-6.3-9.1l-3.9-5.5c-7.2-4.1-18.9-10.2-28.8-16.4-.2.5-.4,1.1-.5,1.7-.7,3.3-2.7,5.9-5.5,8.1-13.3,10.4-46.2,10.3-63.7,10.8-21.2.6-58.2,5.6-23.1,21.9,35,16.3,126.5,37.1,156.7,46.1,22.5,6.7,21.7,15.8,15.5,28.3-.7,1.4-1.5,2.9-2.3,4.4-1.6,3-3.4,6.1-5.1,9.5,1,.8,1.8,1.7,2.3,2.7,1.5-.4,3.2-.8,5.1-1.2,9.8-2.2,24.4-5,38.4-7.9,5-1,8.9-3.7,12.1-7.4,1.6-1.9,3-4,4.2-6.3,8.3-51.8-18-52.9-49.9-57.7ZM667.5,361.6c-13,2.2-24.6,5.2-35,2.1-10.4-3.1-15.2-6.8-8.5-8.8,6.8-2,47.2-4.2,63.5-4.5,18-.4-7.1,9-20,11.2Z"/>
    <path id="shoe33_x5F_9" class="st7" d="M849.1,433.3c-5.7-12.3-13.1-23.6-22.3-31.3-1.6,8.7-3.8,19.4-8.3,27.8-1.2,2.3-2.6,4.5-4.2,6.3-2.4,3.3-15.3,15.6-31.4,29.5-17.7,15.4-39.2,32.7-54.4,41.7-28.8,17.2-6.8,24.6,14.1,24,20.9-.6,98.8-4.4,122-35.7-.4-14.8-5.3-40.3-15.5-62.4Z"/>
    <path id="shoe33_x5F_8" class="st6" d="M866.9,500c0-.4,0-.7-.1-1-.5-3.3-1.2-3.8-1.9-3-.8,1-1.6,4-1.9,6-.6,3.7-5.4,22.6-22.9,30.5-17.5,7.9-29.9,16.1-78.2,18.4-48.3,2.3-168.6,6.8-183.2,6.5l13,9.7h0c13-.5,24.2-.8,32.2-.9,42.6-.6,149.6-3.4,170.3-4.5,20.6-1.1,45.7-5.9,57.6-20.6s16.4-31.9,15.2-40.9Z"/>
    <path id="shoe33_x5F_7" class="st6" d="M864.6,495.7c-23.2,31.2-101.1,35.1-122,35.7-12.3.3-25-2.1-27.5-7.6-1.7-3.9,1.5-9.3,13.4-16.4.5-.3,1.1-.7,1.6-1,15-9.3,35.6-25.9,52.7-40.7h0c.1-.1.2-.2.3-.3.6-.6,1.3-1.1,1.9-1.7.1-.1.3-.2.4-.3.8-.7,1.5-1.3,2.2-2,.2-.2.4-.4.6-.6.6-.5,1.1-1,1.7-1.5.2-.2.4-.4.6-.6.7-.6,1.4-1.3,2.1-1.9,0,0,0,0,0,0,.4-.4.8-.7,1.2-1.1,0,0,0,0,.1-.1.4-.3.7-.7,1.1-1,0,0,.1-.1.2-.2.4-.3.7-.6,1.1-1,0,0,.2-.1.2-.2.3-.3.7-.6,1-.9,0,0,.1-.1.2-.2.3-.3.7-.6,1-.9,0,0,.2-.1.2-.2.3-.3.6-.6.9-.8,0,0,.2-.2.3-.3.3-.3.6-.5.8-.8.1,0,.2-.2.3-.3.3-.3.5-.5.8-.8.1,0,.2-.2.3-.3.3-.2.5-.5.7-.7.1-.1.2-.2.3-.3.2-.2.5-.4.7-.7.1-.1.2-.2.3-.3.2-.2.4-.4.7-.6.1-.1.2-.2.3-.3.2-.2.4-.4.6-.6.1-.1.2-.2.4-.3.2-.2.4-.4.5-.5.1-.1.2-.2.4-.3.2-.2.3-.3.5-.5.1-.1.2-.2.3-.3.2-.2.3-.3.5-.5.1-.1.2-.2.3-.3.1-.1.3-.3.4-.4.1-.1.2-.2.3-.3.1-.1.3-.3.4-.4.1-.1.2-.2.3-.3.1-.1.2-.2.4-.4.1-.1.2-.2.3-.3.1-.1.2-.2.3-.3.1-.1.2-.2.3-.3,0,0,.2-.2.3-.3,0-.1.2-.2.3-.3,0,0,.2-.2.2-.3,0,0,.2-.2.2-.3,0,0,.1-.2.2-.2,0,0,.1-.2.2-.3,0,0,.1-.1.2-.2,0,0,.1-.2.2-.3,0,0,0,0,.1-.1,0-.1.2-.2.3-.3-3.2,3.7-7.1,6.4-12.1,7.4-14,2.8-28.6,5.7-38.4,7.9-1.9.4-3.6.8-5.1,1.2,0,.4,0,.7,0,1.1,0,0,0,0,0,0,0,0,0,0,0,.1,0,.1,0,.3,0,.4,0,0,0,0,0,0,0,.1,0,.3,0,.4,0,0,0,0,0,0,0,0,0,0,0,.1h0c0,.1,0,.3,0,.4,0,0,0,0,0,0,0,0,0,0,0,.1,0,0,0,0,0,0,0,.2,0,.4-.1.6,0,0,0,0,0,0,0,0,0,0,0,0,0,0,0,0,0,0,0,0,0,0,0,0,0,.3-.1.5-.2.8,0,0,0,.1,0,.2,0,.3-.2.6-.3.9,0,0,0,0,0,0,0,0,0,0,0,0,0,.2-.2.4-.3.7,0,0,0,0,0,0,0,0,0,.2-.1.3-.1.2-.2.5-.3.7,0,.1-.1.2-.2.3,0,0,0,0,0,0,0,0,0,0,0,0,0,0,0,0,0,0,0,0,0,0,0,0-.1.2-.3.5-.4.7,0,0,0,0,0,.1-.1.2-.2.4-.4.6,0,.1-.2.2-.2.3,0,.1-.2.3-.3.4-.1.1-.2.3-.3.4,0,.1-.2.2-.3.3-.9,1.1-2,2.3-3.4,3.6,0,0-.1.1-.2.2-.1.1-.3.2-.4.3-.1.1-.3.2-.4.3-1.7,1.4-3.8,2.9-6.4,4.4-.3.2-.6.3-.9.5-.7.4-1.4.8-2.2,1.2-16.4,8.8-127.1,69.2-162.4,83.9,7.3.1,40.3-.9,77.6-2.2,38.3-1.4,81.2-3.1,105.6-4.3,48.3-2.3,60.7-10.4,78.2-18.4,17.5-7.9,22.3-26.8,22.9-30.5.3-2,1.1-4.9,1.9-6l-.2-.3Z"/>
    <path id="shoe33_x5F_6" class="st7" d="M711,462.5c-10.7.7-67.8,5.4-98.3,12.7-30.5,7.3-50.8,20.6-61,29.9s1.7,20.2,18.1,23.2c16.4,3,68.9-19.8,80.8-24.9,11.9-5.1,55.7-28,64.1-32.2s11.3-9.8-3.7-8.8Z"/>
    <path id="shoe33_x5F_5" class="st6" d="M756.5,449.9c-1.4-1.2-3.3-2.2-5.5-3.1-1.5-.6-3.3-1.1-5.2-1.6-17.6-4.3-49.5-3-80.3,0,0,0,0,0,0,0-1.8.2-3.7.4-5.5.6,0,0-.2,0-.3,0-1.8.2-3.6.4-5.4.6-15.4,1.7-30,3.8-41.8,5.6-12.3,1.9-25,5.1-37.5,9h0c-.4.1-.7.2-1.1.3-2.4.7-4.7,1.5-7,2.2-.2,0-.4.1-.6.2-2.7.9-5.4,1.8-8,2.7-28.7,10.1-55.5,22.4-73.1,29.9,4.6,2.3,9,4.7,13,7.2,2.9,1.8,5.5,3.6,8,5.5,16.1,12.1,56.2,37,72.6,48.3,35.3-14.7,146-75.1,162.4-83.9.8-.4,1.5-.8,2.2-1.2.3-.2.6-.3.9-.5.6-.4,1.2-.8,1.8-1.1,1.2-.7,2.2-1.5,3.2-2.2.5-.4.9-.7,1.4-1.1.1-.1.3-.2.4-.3.1-.1.3-.2.4-.3,0,0,.1-.1.2-.2,1.4-1.2,2.5-2.4,3.4-3.6,0-.1.2-.2.3-.3.1-.1.2-.3.3-.4.1-.1.2-.3.3-.4,0,0,.1-.2.2-.3,0,0,0,0,0,0,0,0,0,0,0,0,.1-.2.3-.4.4-.6,0,0,0,0,0-.1,0,0,0,0,0,0,0,0,0,0,0,0,.1-.2.3-.5.4-.7,0,0,0,0,0,0,0,0,0,0,0,0,0,0,0,0,0,0,0-.1.1-.2.2-.3,0,0,.1-.2.2-.3,0,0,0,0,0,0,0-.1.1-.2.2-.3,0,0,0-.2.1-.3,0,0,0,0,0,0,0-.2.2-.4.2-.6,0,0,0,0,0,0,0,0,0,0,0,0,0,0,0,0,0,0,.1-.3.2-.6.3-.9,0,0,0-.1,0-.2,0-.3.2-.6.2-.8,0,0,0,0,0,0,0,0,0,0,0,0,0,0,0,0,0,0,0,0,0,0,0,0,0-.2,0-.4.1-.6,0,0,0,0,0,0,0,0,0,0,0-.1,0,0,0,0,0,0,0-.2,0-.3,0-.4h0s0,0,0-.1c0,0,0,0,0-.1,0,0,0-.2,0-.3,0,0,0,0,0,0,0,0,0-.1,0-.2,0,0,0-.2,0-.2,0,0,0,0,0-.1,0,0,0,0,0,0,0,0,0-.1,0-.2,0-.1,0-.2,0-.4,0,0,0,0,0-.1,0-.2,0-.3,0-.5-.5-1-1.3-1.9-2.3-2.7ZM714.7,471.2c-8.4,4.2-52.3,27.1-64.1,32.2-11.9,5.1-64.4,28-80.8,24.9-16.4-3-28.2-13.9-18.1-23.2s30.5-22.6,61-29.9c30.5-7.3,87.6-12,98.3-12.7,15-1,12.1,4.5,3.7,8.8ZM756.8,459.9s0,0,0,0,0,0,0,0c0,0,0,0,0,0Z"/>
    <path id="shoe33_x5F_4" class="st6" d="M534.8,549.7c-4.1-3.8-41.8-30.9-59.9-42.7-18.1-11.8-49.7-9.6-65.4-1.4s-57.9,27.8-81.8,42.2c-4.9,2.9,4.5,2.6,12.4,3.6s64.4,3.6,90.3,2.8c26-.8,85.5.4,95.6,0,10.2-.4,12.8-.8,8.7-4.5Z"/>
    <path id="shoe33_x5F_3" class="st6" d="M578.6,557.3c-16.4-11.3-56.5-36.1-72.6-48.3-2.4-1.8-5.1-3.7-8-5.5,0,0,0,0,0,0-1-.6-1.9-1.2-2.9-1.8-.1,0-.2-.1-.3-.2-.9-.5-1.8-1-2.7-1.5-.2-.1-.4-.2-.6-.3-.8-.5-1.7-.9-2.5-1.4-.2-.1-.5-.3-.7-.4-1.1-.6-2.2-1.1-3.3-1.6-13.8-6.7-30-11.9-45.9-13.3-13.5-1.2-34.1,6.1-53.2,14.5-7.2,3.1-14.1,6.4-20.4,9.5-8.1,3.9-15.1,7.4-19.9,9.6-14.5,6.7-55.8,26.7-72.3,34.7-.1,3.8.8,7.3,2.3,10.2,12.9,2.2,43.7,5.7,74.5,8.3,24.3,2.1,48.6,3.7,64.1,3.8,20.7.2,74.6-2.3,124.1-4.5,19.1-.8,37.5-1.6,53.2-2.2h0s-13-9.7-13-9.7ZM526.2,554.2c-10.2.4-69.6-.8-95.6,0-26,.8-82.4-1.9-90.3-2.8s-17.3-.6-12.4-3.6c23.9-14.4,66.1-34,81.8-42.2s47.3-10.4,65.4,1.4c18.1,11.8,55.7,38.9,59.9,42.7s1.5,4.1-8.7,4.5Z"/>
    <path id="shoe33_x5F_2" class="st6" d="M345.6,493s-.3,0-.8,0c-1,2.3-2.9,4.7-5,6.6,0,0,0,0,0,0h0c-2.3,2.2-4.8,4-6.6,5-7.3,4-26.8,15.5-44,24.8-11.4,6.2-15.6,14.6-15.9,22,16.6-8,57.8-28,72.3-34.7,4.8-2.2,11.7-5.7,19.9-9.6,0,0,0,0,0,0,.8-.4,1.6-.8,2.4-1.2.3-.1.6-.3.9-.4.6-.3,1.1-.6,1.7-.8.4-.2.7-.3,1.1-.5.5-.3,1.1-.5,1.6-.8.4-.2.8-.4,1.1-.5.5-.3,1.1-.5,1.6-.8.4-.2.8-.4,1.2-.5.6-.3,1.1-.5,1.7-.8.4-.2.8-.3,1.1-.5.6-.3,1.3-.6,1.9-.9.3-.1.6-.3,1-.4,1-.4,1.9-.9,2.9-1.3h0s-40.3-4.6-40.3-4.6Z"/>
    <path id="shoe33_x5F_1" class="st6" d="M344.6,485.9c-2.1-3.1-7.5-5.6-18.4-6.5-7.3-.6-22.7-2-40.9-3.8,0,0,0,0,0,0-1.1-.1-2.3-.2-3.5-.3,0,0-.1,0-.2,0-2.2-.2-4.5-.4-6.8-.7-.2,0-.4,0-.5,0-1.2-.1-2.3-.2-3.5-.3,0,0-.2,0-.3,0-1,0-2.1-.2-3.1-.3-.3,0-.6,0-.9,0-2.3-.2-4.6-.4-6.9-.7-.3,0-.6,0-.9,0-.9,0-1.9-.2-2.8-.3-.2,0-.5,0-.7,0-2.3-.2-4.5-.4-6.8-.7-.5,0-1,0-1.5-.1-.7,0-1.3-.1-2-.2-.5,0-.9,0-1.4-.1-.8,0-1.5-.1-2.3-.2-.7,0-1.4-.1-2.1-.2-.6,0-1.2-.1-1.8-.2-.7,0-1.3-.1-2-.2-.4,0-.9,0-1.3-.1-.5,0-1.1-.1-1.6-.2-1,0-1.9-.2-2.9-.3-.3,0-.6,0-.9,0-.9,0-1.7-.2-2.6-.3-.4,0-.8,0-1.2-.1-.5,0-1-.1-1.5-.2-1.9-.2-3.8-.4-5.7-.6-.7,0-1.4-.1-2.1-.2-.2,0-.5,0-.7,0-.7,0-1.4-.1-2.1-.2-.4,0-.8,0-1.3-.1-.5,0-1.1-.1-1.6-.2-.6,0-1.2-.1-1.7-.2-.8,0-1.6-.2-2.3-.2,0,0-.1,0-.2,0-.8,0-1.5-.1-2.2-.2-.3,0-.6,0-.9,0-.8,0-1.5-.2-2.3-.2-.2,0-.4,0-.6,0-.7,0-1.4-.1-2-.2-.1,0-.3,0-.4,0-.6,0-1.2-.1-1.7-.2-.5,0-1,0-1.5-.1-.4,0-.8,0-1.2-.1-.3,0-.6,0-.9,0-.4,0-.8,0-1.2-.1-.2,0-.5,0-.7,0-1.2-.1-2.3-.2-3.4-.3-.2,0-.4,0-.7,0-.3,0-.6,0-.9,0-.2,0-.4,0-.6,0-.4,0-.9,0-1.3-.1-9.2-1-20.4-2.3-30.8-3.5-14.1-1.7-26.7-3.2-30.5-3.6-.9,0-1.7-.1-2.5-.1-5,0-7.9,2.2-8.2,11.7-.3,11,5.9,41.8,29.4,56.2,17.8,10.9,76.2,23.9,111.2,30.8,11.2,2.2,20,3.8,24.3,4.5-1.5-2.9-2.4-6.4-2.3-10.2.2-7.4,4.5-15.8,15.9-22,2.5-1.4,5.1-2.8,7.7-4.2,15-8.3,30.1-17.2,36.3-20.6,1.8-1,4.3-2.8,6.6-5,0,0,0,0,0,0,.2-.2.5-.5.7-.7,0,0,0,0,0,0,.2-.2.5-.5.7-.7,0,0,0,0,.1-.1.2-.2.4-.4.6-.7,0,0,.1-.1.2-.2.2-.2.3-.4.5-.6,0,0,.1-.2.2-.3.1-.2.3-.4.4-.6,0-.1.2-.3.3-.4.1-.2.2-.3.3-.5.1-.2.2-.4.3-.5,0-.1.1-.2.2-.4.2-.3.3-.6.4-.9,1.1-2.4,1.2-4.8-.2-7Z"/>
  </g>
</svg>