<?xml version="1.0" encoding="utf-8"?>
<!-- Generator: Adobe Illustrator 24.3.0, SVG Export Plug-In . SVG Version: 6.00 Build 0)  -->
<svg version="1.1" id="shapes" xmlns="http://www.w3.org/2000/svg" xmlns:xlink="http://www.w3.org/1999/xlink" x="0px" y="0px"
	 viewBox="0 0 960 660" style="enable-background:new 0 0 960 660;" xml:space="preserve">
<style type="text/css">
	.st0{fill:#FFFFFF;}
	.st3{fill:#FF8A3A;}
	.st4{fill:#262626;}
	.st5{fill:#4BDEE2;}
	.st6{fill:#E8CFCF;}
	.st7:{fill:#E3F71E;}
	.st8{fill:#f15e17;}
</style>
<linearGradient id="gradientWhite" class="st18" gradientUnits="userSpaceOnUse" x1="-40243.3438" y1="234.6189" x2="311033.125" y2="234.6189">
	<stop offset="0" stop-color='var(--color-stop-1)'/>
	<stop offset="0.4771" stop-color='var(--color-stop-2)'/>
	<stop offset="0.7609" stop-color='var(--color-stop-3)'/>
	<stop offset="0.9938" stop-color='var(--color-stop-4)'/>
	<stop offset="1" stop-color='var(--color-stop-5)'/>
</linearGradient>
<linearGradient id="#parkerBluePurple" class="st31" gradientUnits="userSpaceOnUse" x1="202.424" y1="404.0195" x2="310.9909" y2="404.0195">
	<stop offset="9.624222e-04" stop-color='var(--color-stop-1)'/>
	<stop offset="1" stop-color='var(--color-stop-2)'/>
</linearGradient>
<linearGradient id="parkerYellowOrange" class="st32" gradientUnits="userSpaceOnUse" x1="442.4247" y1="386.8842" x2="492.5229" y2="386.8842">
	<stop offset="3.098992e-04" stop-color='var(--color-stop-1)'/>
	<stop offset="1" stop-color='var(--color-stop-2)'/>
</linearGradient>
<linearGradient id="parkerYellowOrange" class="st33" gradientUnits="userSpaceOnUse" x1="529.8393" y1="398.1612" x2="591.9987" y2="398.1612">
	<stop offset="3.098992e-04" stop-color='var(--color-stop-1)'/>
	<stop offset="1" stop-color='var(--color-stop-2)'/>
</linearGradient>
<linearGradient id="parkerBluePurple" class="st34" gradientUnits="userSpaceOnUse" x1="419.7807" y1="395.1456" x2="620.7772" y2="395.1456">
	<stop offset="9.624222e-04" stop-color='var(--color-stop-1)'/>
	<stop offset="1" stop-color='var(--color-stop-2)'/>
</linearGradient>
<linearGradient id="parkerYellowOrange" class="st36" gradientUnits="userSpaceOnUse" x1="149.4888" y1="375.2458" x2="760.2122" y2="375.2458">
	<stop offset="3.098992e-04" stop-color='var(--color-stop-1)'/>
	<stop offset="1" stop-color='var(--color-stop-2)'/>
</linearGradient>
<linearGradient id="eddPurpleYellow" class="st37" gradientUnits="userSpaceOnUse" x1="163.2034" y1="415.3457" x2="444.0203" y2="415.3457">
	<stop  offset="0.2931" stop-color='var(--color-stop-1)'/>
	<stop  offset="0.3833" stop-color='var(--color-stop-2)'/>
	<stop  offset="0.6034" stop-color='var(--color-stop-3)'/>
	<stop  offset="0.7868" stop-color='var(--color-stop-4)'/>
	<stop  offset="0.9242" stop-color='var(--color-stop-5)'/>
	<stop  offset="1" stop-color='var(--color-stop-6)'/>
</linearGradient>
<linearGradient id="eddRedPurple" class="st39" gradientUnits="userSpaceOnUse" x1="372.1992" y1="367.8077" x2="810.1928" y2="367.8077">
	<stop  offset="0.2931" stop-color='var(--color-stop-1)'/>
	<stop  offset="0.4828" stop-color='var(--color-stop-2)'/>
	<stop  offset="0.721" stop-color='var(--color-stop-3)'/>
	<stop  offset="0.9008" stop-color='var(--color-stop-4)'/>
	<stop  offset="1" stop-color='var(--color-stop-5)'/>
</linearGradient>
<linearGradient id="stewartNeonBlack" class="st43" gradientUnits="userSpaceOnUse" x1="101.0611" y1="494.1898" x2="622.0483" y2="494.1898">
	<stop  offset="0" stop-color='var(--color-stop-1)'/>
	<stop  offset="0.3504" stop-color='var(--color-stop-2)'/>
	<stop  offset="0.4764" stop-color='var(--color-stop-3)'/>
	<stop  offset="0.5" stop-color='var(--color-stop-4)'/>
	<stop  offset="0.6821" stop-color='var(--color-stop-5)'/>
	<stop  offset="0.7501" stop-color='var(--color-stop-6)'/>
	<stop  offset="0.7989" stop-color='var(--color-stop-7)'/>
	<stop  offset="0.8386" stop-color='var(--color-stop-8)'/>
	<stop  offset="0.8728" stop-color='var(--color-stop-9)'/>
	<stop  offset="0.9031" stop-color='var(--color-stop-10)'/>
	<stop  offset="0.9306" stop-color='var(--color-stop-11)'/>
	<stop  offset="0.9559" stop-color='var(--color-stop-12)'/>
	<stop  offset="0.9784" stop-color='var(--color-stop-13)'/>
	<stop  offset="1" stop-color='var(--color-stop-14)'/>
</linearGradient>
<linearGradient id="stewartNeonBlack" class="st45" gradientUnits="userSpaceOnUse" x1="101.0611" y1="494.1898" x2="622.0483" y2="494.1898">
	<stop  offset="0" stop-color='var(--color-stop-1)'/>
	<stop  offset="0.3504" stop-color='var(--color-stop-2)'/>
	<stop  offset="0.4764" stop-color='var(--color-stop-3)'/>
	<stop  offset="0.5" stop-color='var(--color-stop-4)'/>
	<stop  offset="0.6821" stop-color='var(--color-stop-5)'/>
	<stop  offset="0.7501" stop-color='var(--color-stop-6)'/>
	<stop  offset="0.7989" stop-color='var(--color-stop-7)'/>
	<stop  offset="0.8386" stop-color='var(--color-stop-8)'/>
	<stop  offset="0.8728" stop-color='var(--color-stop-9)'/>
	<stop  offset="0.9031" stop-color='var(--color-stop-10)'/>
	<stop  offset="0.9306" stop-color='var(--color-stop-11)'/>
	<stop  offset="0.9559" stop-color='var(--color-stop-12)'/>
	<stop  offset="0.9784" stop-color='var(--color-stop-13)'/>
	<stop  offset="1" stop-color='var(--color-stop-14)'/>
</linearGradient>
<g id="shoe0">
	<path id="shoe0_x5F_9" class="st3" d="M680.3,428.8h-35.1v-29.2c0-4.2-1-6.9-4-6.9c-3,0-3.7,2.8-3.7,6.9v19.7
		c0,7.4,2.2,10,8.5,15.3l17.2,14.4c12.7,10.6,17.4,17.8,17.4,35.6v17.1c0,26.2-14.9,39.6-39.8,39.6c-25.1,0-39.5-13.4-39.5-39.6
		v-23.6h35.3v29.9c0,4.2,1,6.9,3.7,6.9c3,0,4-2.8,4-6.9v-21.1c0-7.2-2.2-9-8-13.7l-18.4-15c-10.9-9.3-16.7-17.4-16.7-33.1v-19.2
		c0-25.7,15.4-39.6,40.5-39.6c25.1,0,38.6,13.9,38.6,39.6V428.8z"/>
	<path id="shoe0_x5F_8_1_" class="st4" d="M511.1,368.1h36.8v66.2h0.7l10.9-66.2h38.3L583,449.8l14.9,89.6h-38.6L548.6,467h-0.7
		v72.5h-36.8V368.1z"/>
	<path id="shoe0_x5F_7" class="st5" d="M501.8,502.4c0,25.5-13.4,38.9-39.6,38.9c-25.6,0-41-13.4-41-38.9v-97.2
		c0-25.5,15.4-38.9,41-38.9c26.1,0,39.6,13.4,39.6,38.9v32.2H466v-37.5c0-4.4-1-7.2-3.7-7.2c-3,0-4,2.8-4,7.2v108.1
		c0,4.2,1,6.9,4,6.9c2.7,0,3.7-2.8,3.7-6.9v-40.5h35.8V502.4z"/>
	<path id="shoe0_x5F_6_1_" class="st0" d="M374.4,368.1h37.3v171.3h-37.3V425.2V368.1z"/>
	<path id="shoe0_x5F_5_1_" class="st6" d="M280.5,368.1h36.8v66.2h0.7l10.9-66.2h38.3l-14.9,81.7l14.9,89.6h-38.6L318.1,467h-0.7
		v72.5h-36.8V368.1z"/>
	<path id="shoe0_x5F_4" class="st0" d="M678.2,141.5l1.8,175h-41l1.9-32.6h-10.2l-5.9,32.6h-39.9l44.5-175H678.2z M635.7,255.8h7
		l1.5-25.3l3.2-36.9h-0.8l-6.1,36.9L635.7,255.8z"/>
	<path id="shoe0_x5F_3" class="st7" d="M583,283.7c-3.2,21-19.1,32.9-41.6,32.9h-55.5l29.8-175h51.4c22.5,0,34.9,11.8,31.7,33.1
		l-4.6,30.5c-1.5,9.9-5.4,18-18.8,23.4c11.7,5.7,13.8,13.7,12.2,23.9L583,283.7z M558.5,175.8c0.9-5.9-0.1-8.3-3.3-8.3h-3.2
		l-7.2,47.8h3.2c3.2,0,4.9-2.4,5.8-8.3L558.5,175.8z M548,249.1c0.9-5.9-0.1-8.3-3.3-8.3h-3.8l-7.4,49.7h3.8c3.2,0,4.9-2.4,5.8-8.3
		L548,249.1z"/>
	<path id="shoe0_x5F_2_1_" d="M454.9,210.6h0.5l11.6-69.1h36.7l-29.5,175h-35.9l-2-77.1h-0.5l-18.4,77.1h-36.7l34.9-175H455
		L454.9,210.6z"/>
	<path id="shoe0_x5F_1_1_" class="st8" d="M333,240.2h-0.5L317,316.5h-37v-175h39.8l-3.6,80.6h0.5l13.8-80.6h28.7l-3.4,80.6h0.5
		l13.8-80.6H405l-36.3,175h-37L333,240.2z"/>
</g>
</svg>
