<?xml version="1.0" encoding="utf-8"?>
<!-- Generator: Adobe Illustrator 24.3.0, SVG Export Plug-In . SVG Version: 6.00 Build 0)  -->
<svg version="1.1" id="shapes" xmlns="http://www.w3.org/2000/svg" xmlns:xlink="http://www.w3.org/1999/xlink" x="0px" y="0px"
	 width="960px" height="660px" viewBox="0 0 960 660" style="enable-background:new 0 0 960 660;" xml:space="preserve">
<style type="text/css">
	.st0{fill:#030C28;}
	.st1{fill:#071344;}
	.st2{fill:url(#shoe1_x5F_15_1_);}
	.st3{fill:url(#shoe1_x5F_14_1_);}
	.st4{fill:url(#shoe1_x5F_13_1_);}
	.st5{fill:#BC1727;}
	.st6{fill:url(#shoe1_x5F_11_1_);}
	.st7{fill:#D81F28;}
	.st8{fill:url(#shoe1_x5F_7_1_);}
	.st9{fill:url(#shoe1_x5F_3_1_);}
	.st10{fill:url(#shoe1_x5F_2_1_);}
	.st11{fill:url(#shoe2_x5F_27_1_);}
	.st12{fill:#1D4C96;}
	.st13{fill:#EFEFEF;}
	.st14{fill:url(#shoe2_x5F_23_1_);}
	.st15{fill:url(#shoe2_x5F_22_1_);}
	.st16{fill:#0F346B;}
	.st17{fill:url(#shoe2_x5F_20_1_);}
	.st18{fill:#262626;}
	.st19{fill:#2B61AF;}
	.st20{fill:url(#shoe2_x5F_13_1_);}
	.st21{fill:url(#shoe2_x5F_8_1_);}
	.st22{fill:url(#shoe2_x5F_4_1_);}
	.st23{fill:url(#shoe2_x5F_3_1_);}
	.st24{fill:url(#shoe3_x5F_20_1_);}
	.st25{fill:#FFFFFF;}
	.st26{fill:url(#shoe3_x5F_14_1_);}
	.st27{fill:url(#shoe3_x5F_10_1_);}
	.st28{fill:url(#shoe3_x5F_9_1_);}
	.st29{fill:url(#shoe3_x5F_8_1_);}
	.st30{fill:url(#shoe3_x5F_7_1_);}
	.st31{fill:url(#shoe3_x5F_1_1_);}
	.st32{fill:url(#shoe4_x5F_14_1_);}
	.st33{fill:url(#shoe4_x5F_11_1_);}
	.st34{fill:#C7E6E6;}
	.st35{fill:url(#shoe4_x5F_5_1_);}
	.st36{fill:url(#shoe4_x5F_4_1_);}
	.st37{fill:url(#shoe4_x5F_2_1_);}
	.st38{fill:url(#shoe5_x5F_16_1_);}
	.st39{fill:#191919;}
	.st40{fill:#F7F7F7;}
	.st41{fill:url(#shoe5_x5F_9_1_);}
	.st42{fill:#DFDFDF;}
	.st43{fill:url(#shoe5_x5F_4_1_);}
	.st44{fill:url(#shoe5_x5F_3_1_);}
	.st45{fill:url(#shoe6_x5F_16_1_);}
	.st46{fill:url(#shoe6_x5F_15_1_);}
	.st47{stroke:#191919;stroke-miterlimit:10;}
	.st48{fill:#878787;}
	.st49{fill:url(#shoe6_x5F_7_1_);}
	.st50{fill:url(#shoe6_x5F_2_1_);}
	.st51{fill:url(#shoe7_x5F_12_1_);}
	.st52{fill:url(#shoe7_x5F_10_1_);}
	.st53{fill:url(#shoe7_x5F_6_1_);}
	.st54{fill:url(#shoe7_x5F_5_1_);}
	.st55{fill:url(#shoe8_x5F_9_1_);}
	.st56{fill:url(#shoe8_x5F_5_1_);}
	.st57{fill:url(#shoe8_x5F_2_1_);}
	.st58{fill:url(#shoe9_x5F_22_1_);}
	.st59{fill:url(#shoe9_x5F_18_1_);}
	.st60{fill:url(#shoe9_x5F_12_1_);}
	.st61{fill:url(#shoe9_x5F_9_1_);}
	.st62{fill:url(#shoe9_x5F_7_1_);}
	.st63{fill:url(#shoe9_x5F_4_1_);}
	.st64{fill:url(#shoe10_x5F_31_1_);}
	.st65{fill:url(#shoe10_x5F_30_1_);}
	.st66{fill:url(#shoe10_x5F_29_1_);}
	.st67{fill:url(#shoe10_x5F_28_1_);}
	.st68{fill:url(#shoe10_x5F_27_1_);}
	.st69{fill:url(#shoe10_x5F_26_1_);}
	.st70{fill:url(#shoe10_x5F_4_1_);}
	.st71{fill:url(#shoe10_x5F_3_1_);}
	.st72{fill:url(#shoe10_x5F_1_1_);}
	.st73{fill:url(#shoe11_x5F_5_1_);}
	.st74{fill:#CACACA;}
	.st75{fill:#6D6D6D;}
	.st76{fill:url(#shoe12_x5F_16_1_);}
	.st77{fill:url(#shoe12_x5F_8_1_);}
	.st78{fill:url(#shoe13_x5F_14_1_);}
	.st79{fill:url(#shoe13_x5F_13_1_);}
	.st80{fill:url(#shoe13_x5F_11_1_);}
	.st81{fill:url(#shoe13_x5F_5_1_);}
	.st82{fill:url(#shoe13_x5F_3_1_);}
	.st83{fill:url(#shoe14_x5F_8_1_);}
	.st84{fill:url(#shoe15_x5F_16_1_);}
	.st85{fill:url(#shoe15_x5F_15_1_);}
	.st86{fill:url(#shoe15_x5F_6_1_);}
	.st87{fill:url(#shoe15_x5F_4_1_);}
	.st88{fill:url(#shoe15_x5F_2_1_);}
	.st89{fill:url(#shoe15_x5F_1_1_);}
	.st90{fill:url(#shoe16_x5F_30_1_);}
	.st91{fill:url(#shoe16_x5F_28_1_);}
	.st92{fill:url(#shoe16_x5F_25_1_);}
	.st93{fill:url(#shoe16_x5F_23_1_);}
	.st94{fill:url(#shoe16_x5F_20_1_);}
	.st95{fill:url(#shoe16_x5F_16_1_);}
	.st96{fill:url(#shoe16_x5F_11_1_);}
	.st97{fill:url(#shoe17_x5F_17_1_);}
	.st98{fill:#FFDD17;}
	.st99{fill:url(#shoe17_x5F_11_1_);}
	.st100{fill:#382E88;}
	.st101{fill:url(#shoe17_x5F_9_1_);}
	.st102{fill:url(#shoe17_x5F_5_1_);}
	.st103{fill:url(#shoe17_x5F_4_1_);}
	.st104{fill:#F7CE06;}
	.st105{fill:url(#shoe18_x5F_16_1_);}
	.st106{fill:url(#shoe18_x5F_15_1_);}
	.st107{fill:#4A46A5;}
	.st108{fill:url(#shoe18_x5F_4_1_);}
	.st109{fill:url(#shoe18_x5F_3_1_);}
	.st110{fill:#F9E26E;}
	.st111{fill:#FF8A3A;}
	.st112{fill:url(#shoe19_x5F_24_1_);}
	.st113{fill:url(#shoe19_x5F_22_1_);}
	.st114{fill:url(#shoe19_x5F_21_1_);}
	.st115{fill:url(#shoe19_x5F_20_1_);}
	.st116{fill:#F9A513;}
	.st117{fill:#F15E17;}
	.st118{fill:url(#shoe19_x5F_8_1_);}
	.st119{clip-path:url(#SVGID_2_);}
	.st120{clip-path:url(#SVGID_4_);}
	.st121{fill:#FFFFFF;stroke:#A8A8A8;stroke-width:0;stroke-miterlimit:10;}
	.st122{fill:#A8A8A8;}
	.st123{fill:url(#shoe20_x5F_7_1_);}
	.st124{fill:url(#shoe20_x5F_5_1_);}
	.st125{fill:#0087CD;}
	.st126{fill:url(#shoe20_x5F_1_1_);}
	.st127{fill:#4BDEE2;}
	.st128{fill:#28285E;}
	.st129{fill:#6B6BC6;}
	.st130{fill:url(#shoe21_x5F_2_1_);}
	.st131{fill:#E8CFCF;}
	.st132{fill:url(#shoe22_x5F_11_1_);}
	.st133{fill:#EEF91C;}
	.st134{fill:url(#shoe22_x5F_8_2_);}
	.st135{fill:#E3F71E;}
</style>
<g id="shoe1">
	<path id="shoe1_x5F_17" class="st0" d="M528.5,566.2c-2.6-1.9-4-4.1-4.8-6.5c-16.5,8.5-70.2,10.6-95.4,9.8
		c-25.2-0.9-137.4-10.4-149-11.5c-2.2-0.2-4.3-0.4-6.3-0.7c-15.8-1.5-44-6.5-65.4-10.2c-21.4-3.8-39.4-16.5-55.2-27.4
		s-53.3-23.3-62.3-24.8c-9-1.5-18.8-7.1-23.7-11.3l0,0c0.2,4.1,0.3,8.1,0.4,11.6c0.4,10.1,2.7,26.9,21.9,36
		c27.6,13.1,166.9,41,195.1,43.2c28.2,2.3,177.2,13.9,205.4,8.5C508.2,579.3,518.7,572.6,528.5,566.2
		C528.5,566.2,528.5,566.2,528.5,566.2z"/>
	<path id="shoe1_x5F_16" class="st1" d="M249.3,543.7c-5.3-6.9-18.2-20.3-30.7-32.3c-9.8-9.5-19.4-18.2-24.8-22.5
		c-23.3-17.6-86.7-29.7-96.1-31.5s-15.8-7.9-20.3-13.5c-8.8,3.4-11.5,9.7-11.5,18.3c0,5.6,0.3,13.7,0.5,21.5
		c4.9,4.1,14.7,9.8,23.7,11.3c9,1.5,46.6,13.9,62.3,24.8s33.8,23.7,55.2,27.4c21.4,3.8,49.6,8.7,65.4,10.2
		C264.3,556.2,256.9,553.8,249.3,543.7z"/>
	<linearGradient id="shoe1_x5F_15_1_" gradientUnits="userSpaceOnUse" x1="77.3163" y1="430.0015" x2="388.9246" y2="430.0015">
		<stop  offset="0" style="stop-color:#FFFFFF"/>
		<stop  offset="0.4771" style="stop-color:#FCFCFC"/>
		<stop  offset="0.7609" style="stop-color:#F4F4F4"/>
		<stop  offset="0.9938" style="stop-color:#E6E6E6"/>
		<stop  offset="1" style="stop-color:#E6E6E6"/>
	</linearGradient>
	<path id="shoe1_x5F_15" class="st2" d="M304.4,437.7c-46.2-25.6-116.6-25.1-129.8-34.6c-13.2-9.5,20.3-22.3,30.1-24.9
		c9.9-2.5,38.6-9.9,45.9-11.5c4.4-1,4-2.6,1.8-3.6c-1.5-0.6-3.9-1-6.3-0.6c-1,0.1-2.4,0.4-3.9,0.7c-7.6,1.6-20.9,5-32.4,7.8
		c-13.9,3.4-33.4,10.9-45,18.4c-8.3,5.3-21.9,13.2-35.6,18.7c-5.5,2.2-11,4.1-16.2,5.3c-18,4.1-27.4,15-35.7,30.4
		c4.5,5.6,10.9,11.6,20.3,13.5s72.8,13.9,96.1,31.5c5.6,0.5,17.9,1.4,33.6,2.3c14.4,0.9,31.8,1.8,49.7,2.8
		c33.2,1.7,68.2,3.2,89.1,3.6c7.5,0.1,15.1,0,22.9-0.2C379.1,485.4,350.6,463.3,304.4,437.7z"/>
	<linearGradient id="shoe1_x5F_14_1_" gradientUnits="userSpaceOnUse" x1="193.6943" y1="528.5067" x2="523.6924" y2="528.5067">
		<stop  offset="0" style="stop-color:#FFFFFF"/>
		<stop  offset="0.4771" style="stop-color:#FCFCFC"/>
		<stop  offset="0.7609" style="stop-color:#F4F4F4"/>
		<stop  offset="0.9938" style="stop-color:#E6E6E6"/>
		<stop  offset="1" style="stop-color:#E6E6E6"/>
	</linearGradient>
	<path id="shoe1_x5F_14" class="st3" d="M520.7,544.1c-1.4-2.9-5.2-10.7-9.7-19.8c-6.4-13.1-14.2-29-17.8-37
		c-29.2,3.7-67.9,8.8-104.3,10c-7.8,0.3-15.5,0.4-22.9,0.2c-20.9-0.4-55.8-1.9-89.1-3.6c-1.1-0.1-2.3-0.1-3.4-0.2
		c-0.3,0-0.7,0-1-0.1c-0.8,0-1.5-0.1-2.3-0.1c-0.6,0-1.2-0.1-1.8-0.1c-0.5,0-1-0.1-1.5-0.1c-0.6,0-1.2-0.1-1.9-0.1
		c-0.5,0-1-0.1-1.5-0.1c-0.6,0-1.1-0.1-1.7-0.1c-0.5,0-1.1-0.1-1.6-0.1c-0.5,0-1.1-0.1-1.6-0.1c-0.6,0-1.1-0.1-1.7-0.1
		c-0.6,0-1.2-0.1-1.8-0.1c-0.4,0-0.9,0-1.3-0.1c-0.7,0-1.4-0.1-2.1-0.1c-0.3,0-0.7,0-1-0.1c-0.7,0-1.5-0.1-2.2-0.1
		c-0.3,0-0.7,0-1-0.1c-0.7,0-1.5-0.1-2.2-0.1c-0.3,0-0.6,0-0.9-0.1c-0.7,0-1.5-0.1-2.2-0.1c-0.3,0-0.6,0-0.9-0.1
		c-0.7,0-1.4-0.1-2.1-0.1c-0.3,0-0.6,0-0.9-0.1c-0.8,0-1.5-0.1-2.3-0.1c-0.1,0-0.3,0-0.4,0c-0.9-0.1-1.7-0.1-2.6-0.1
		c-0.1,0-0.2,0-0.3,0c-0.9-0.1-1.7-0.1-2.6-0.2c-0.1,0-0.1,0-0.2,0c-0.9-0.1-1.7-0.1-2.6-0.2c0,0,0,0,0,0c-15.7-0.9-28-1.8-33.6-2.3
		c0.4,0.3,0.8,0.6,1.2,0.9c0.1,0.1,0.3,0.2,0.4,0.3c0.3,0.2,0.6,0.5,0.9,0.7c0.2,0.1,0.4,0.3,0.5,0.4c0.3,0.2,0.5,0.5,0.8,0.7
		c0.2,0.2,0.4,0.3,0.6,0.5c0.3,0.2,0.6,0.5,0.9,0.7c0.2,0.2,0.4,0.4,0.6,0.6c0.3,0.3,0.6,0.5,0.9,0.8c0.2,0.2,0.4,0.4,0.7,0.6
		c0.3,0.3,0.7,0.6,1,0.9c0.2,0.2,0.4,0.4,0.7,0.6c0.4,0.4,0.8,0.7,1.2,1.1c0.2,0.2,0.3,0.3,0.5,0.5c0.6,0.5,1.1,1,1.7,1.5
		c0.3,0.2,0.6,0.5,0.8,0.8c0.3,0.3,0.6,0.6,1,0.9c0.3,0.3,0.6,0.6,0.9,0.8c0.3,0.3,0.6,0.6,0.9,0.9c0.3,0.3,0.6,0.6,1,0.9
		c0.3,0.3,0.6,0.6,0.9,0.9c0.3,0.3,0.7,0.6,1,0.9c0.3,0.3,0.6,0.6,0.9,0.9c0.3,0.3,0.7,0.6,1,1c0.3,0.3,0.6,0.6,0.9,0.9
		c0.3,0.3,0.7,0.6,1,1c0.3,0.3,0.6,0.6,0.9,0.9c0.4,0.3,0.7,0.7,1.1,1c12.5,12.1,25.5,25.4,30.7,32.3c0.4,0.6,0.9,1.1,1.3,1.6
		c0.1,0.1,0.2,0.2,0.3,0.3c0.4,0.5,0.8,1,1.2,1.4c0.1,0.1,0.1,0.2,0.2,0.2c0.4,0.4,0.8,0.8,1.2,1.2c0,0,0.1,0.1,0.1,0.1
		c0.4,0.4,0.8,0.8,1.3,1.2c0.1,0.1,0.2,0.2,0.3,0.2c0.4,0.4,0.8,0.7,1.2,1c0.1,0,0.1,0.1,0.2,0.1c0.4,0.3,0.8,0.6,1.2,0.9
		c0.1,0.1,0.2,0.1,0.2,0.2c0.4,0.3,0.8,0.5,1.3,0.8c0.1,0.1,0.2,0.1,0.3,0.2c0.4,0.3,0.9,0.5,1.3,0.7c0.4,0.2,0.9,0.4,1.3,0.6
		c0.1,0,0.2,0.1,0.3,0.1c0.4,0.2,0.9,0.4,1.3,0.5c0.1,0,0.2,0.1,0.2,0.1c0.4,0.1,0.8,0.3,1.2,0.4c0.1,0,0.1,0,0.2,0.1
		c0.4,0.1,0.9,0.3,1.3,0.4c0.1,0,0.2,0.1,0.3,0.1c0.4,0.1,0.9,0.2,1.4,0.3c0.1,0,0.1,0,0.2,0c0.4,0.1,0.9,0.2,1.3,0.3
		c0.1,0,0.2,0,0.2,0c0.5,0.1,0.9,0.2,1.4,0.2c0.1,0,0.2,0,0.3,0c0.5,0.1,1,0.1,1.4,0.2c2,0.3,4.1,0.5,6.3,0.7
		c11.6,1.1,123.9,10.6,149,11.5c25.2,0.9,78.9-1.3,95.4-9.8C521.9,554.7,523,549,520.7,544.1z"/>
	<linearGradient id="shoe1_x5F_13_1_" gradientUnits="userSpaceOnUse" x1="171.5912" y1="406.9719" x2="498.1542" y2="406.9719">
		<stop  offset="0" style="stop-color:#FFFFFF"/>
		<stop  offset="0.4771" style="stop-color:#FCFCFC"/>
		<stop  offset="0.7609" style="stop-color:#F4F4F4"/>
		<stop  offset="0.9938" style="stop-color:#E6E6E6"/>
		<stop  offset="1" style="stop-color:#E6E6E6"/>
	</linearGradient>
	<path id="shoe1_x5F_13" class="st4" d="M450.5,386.1c-7.9-24.8-28.9-60.1-33.4-69.5c-28.9,9-138.5,39.4-164.6,46.5h0
		c2.3,1,2.6,2.6-1.8,3.6c-7.3,1.7-36,9-45.9,11.5c-9.9,2.5-43.4,15.4-30.1,24.9c13.2,9.5,83.6,8.9,129.8,34.6
		c46.2,25.6,74.6,47.8,84.5,59.6c36.4-1.3,75.1-6.3,104.3-10c1.7-0.2,3.3-0.4,4.9-0.6C470.7,456.3,458.4,410.8,450.5,386.1z"/>
	<path id="shoe1_x5F_12" class="st5" d="M548.4,479.4C548.4,479.4,548.4,479.4,548.4,479.4c-2.5,0.4-4.9,0.7-7.3,1.1
		c-2.9,0.4-5.8,0.9-8.6,1.3c0,0-0.1,0-0.1,0c-1.2,0.2-2.3,0.3-3.5,0.5c-0.1,0-0.2,0-0.3,0c-1.2,0.2-2.3,0.3-3.4,0.5c0,0,0,0,0,0
		c-2.3,0.3-4.5,0.7-6.6,1c-0.2,0-0.3,0-0.5,0.1c-0.8,0.1-1.7,0.2-2.5,0.4c-0.2,0-0.5,0.1-0.7,0.1c-0.7,0.1-1.5,0.2-2.2,0.3
		c-0.2,0-0.5,0.1-0.7,0.1c-0.7,0.1-1.5,0.2-2.2,0.3c-0.2,0-0.3,0-0.5,0.1c-0.9,0.1-1.7,0.2-2.5,0.3c-0.1,0-0.3,0-0.4,0.1
		c-0.6,0.1-1.3,0.2-1.9,0.3c-0.2,0-0.5,0.1-0.7,0.1c-0.5,0.1-1,0.1-1.4,0.2c-0.2,0-0.5,0.1-0.7,0.1c-0.5,0.1-0.9,0.1-1.4,0.2
		c-0.2,0-0.4,0.1-0.6,0.1c-0.6,0.1-1.2,0.2-1.8,0.2c-1.6,0.2-3.3,0.4-4.9,0.6c0.2,0.5,0.4,1,0.7,1.5c0.1,0.2,0.2,0.3,0.2,0.5
		c0.2,0.4,0.3,0.7,0.5,1.1c0.1,0.2,0.2,0.4,0.3,0.6c0.2,0.4,0.3,0.7,0.5,1.1c0.1,0.2,0.2,0.5,0.3,0.7c0.2,0.4,0.4,0.8,0.6,1.2
		c0.1,0.2,0.2,0.5,0.3,0.7c0.2,0.5,0.5,1.1,0.8,1.6c0.1,0.1,0.1,0.3,0.2,0.4c0.3,0.7,0.7,1.4,1,2.1c0.1,0.2,0.2,0.3,0.2,0.5
		c0.3,0.6,0.6,1.2,0.8,1.8c0.1,0.2,0.2,0.5,0.3,0.7c0.2,0.5,0.5,1,0.8,1.6c0.1,0.3,0.3,0.6,0.4,0.9c0.2,0.5,0.5,1,0.7,1.5
		c0.1,0.3,0.3,0.6,0.4,0.9c0.3,0.6,0.5,1.1,0.8,1.7c0.1,0.2,0.2,0.5,0.3,0.7c0.8,1.6,1.6,3.3,2.4,4.9c0.1,0.1,0.1,0.3,0.2,0.4
		c0.3,0.7,0.6,1.3,1,2c0.1,0.3,0.3,0.5,0.4,0.8c0.3,0.6,0.6,1.2,0.9,1.8c0.1,0.1,0.1,0.3,0.2,0.4c0.4,0.7,0.7,1.4,1.1,2.1
		c0,0.1,0.1,0.2,0.1,0.3c0.4,0.7,0.7,1.5,1.1,2.2c0,0.1,0.1,0.1,0.1,0.2h0c4.5,9.1,8.3,16.9,9.7,19.8c3.4,7.1-0.4,16.1,7.9,22.1
		c0,0,0,0,0,0c4.7-3.1,9.3-6,14.7-8.6c16.5-7.9,28.5-5.3,37.2,2.3c4.1,3.6,7.7,6.9,12.2,9.6l0,0c10-2.5,14.8-9.9,20.1-16.7
		c-5.8-3.8-4.8-12.5,3.4-19.6c5-4.4,25.2-21.5,46.6-39.7c0.1-0.1,0.2-0.2,0.3-0.3c0.6-0.5,1.2-1,1.8-1.6c0.8-0.7,1.6-1.4,2.4-2.1
		c0.3-0.2,0.5-0.5,0.8-0.7c0.9-0.8,1.8-1.6,2.7-2.3c0.3-0.2,0.5-0.5,0.8-0.7c0.5-0.4,0.9-0.8,1.4-1.2c0.3-0.3,0.6-0.5,0.9-0.8
		c0.7-0.6,1.4-1.2,2.1-1.8c0.5-0.4,1-0.8,1.4-1.2c0.3-0.3,0.6-0.5,0.9-0.8c0.8-0.7,1.6-1.4,2.4-2.1c0.3-0.2,0.5-0.4,0.8-0.6
		c0.9-0.7,1.7-1.5,2.6-2.2c0.1-0.1,0.1-0.1,0.2-0.2c0.9-0.8,1.8-1.5,2.6-2.3c0.1-0.1,0.3-0.2,0.4-0.4c0.7-0.6,1.4-1.2,2.1-1.8
		c0.3-0.2,0.5-0.4,0.8-0.7c0.7-0.6,1.4-1.2,2.1-1.8c0.3-0.2,0.6-0.5,0.9-0.7c0.7-0.6,1.4-1.2,2-1.7c0.2-0.2,0.5-0.4,0.7-0.6
		c0.7-0.6,1.5-1.3,2.2-1.9c0,0,0.1-0.1,0.1-0.1c0.8-0.7,1.5-1.3,2.3-1.9c0.1-0.1,0.2-0.2,0.3-0.3c0.7-0.6,1.4-1.2,2.1-1.8
		c0.1-0.1,0.2-0.2,0.3-0.3c0.7-0.6,1.5-1.2,2.1-1.8c0,0,0.1-0.1,0.1-0.1c0.7-0.6,1.5-1.2,2.1-1.8C670.1,460.6,599,471.8,548.4,479.4
		z"/>
	<linearGradient id="shoe1_x5F_11_1_" gradientUnits="userSpaceOnUse" x1="408.0317" y1="342.715" x2="543.2938" y2="342.715">
		<stop  offset="0" style="stop-color:#FFFFFF"/>
		<stop  offset="0.4771" style="stop-color:#FCFCFC"/>
		<stop  offset="0.7609" style="stop-color:#F4F4F4"/>
		<stop  offset="0.9938" style="stop-color:#E6E6E6"/>
		<stop  offset="1" style="stop-color:#E6E6E6"/>
	</linearGradient>
	<path id="shoe1_x5F_11" class="st6" d="M507.7,305.4c-6.6-13.8-15.1-31.3-19.9-41.1c-1.8-3.7-3.1-6.3-3.5-7.1
		c-1.4-2.8-2.8-3.9-7.6-2.3c-4.8,1.7-62.5,30.1-66.4,32.1c-3.9,2-2,5.3,0,8.4c0.4,0.6,1.9,3.1,4.1,6.8c8.4,13.9,27.1,45,34.7,56.6
		c9.6,14.6,34.4,45.3,46.5,60.3s39,17.5,46.2,0C550.5,398,518.7,328.3,507.7,305.4z"/>
	<path id="shoe1_x5F_10" class="st7" d="M587.7,148.1C587.7,148.1,587.7,148.1,587.7,148.1c-0.8-0.5-2.8-0.1-4.6,2.6
		c-0.9,1.4-23.4,34.7-24.4,36.7c-0.5,1.1-0.3,2,0.2,2.6c0.4,0.6,1.1,0.9,1.6,1c1.1,0.1,1.8,0.9,3.3-1.7c1.5-2.6,20.6-28.5,22.8-31.5
		C588.9,155,591.4,150.7,587.7,148.1z"/>
	<path id="shoe1_x5F_9" class="st0" d="M652.4,158.9c-18.3-10.5-21.7-18.7-26.2-24.7c-4.5-6-16.1-8.6-22.9-4.1
		c-2.8,1.9-9,9.4-15.6,18c3.7,2.6,1.2,6.9-1,9.8c-2.2,2.9-21.3,28.8-22.8,31.5c-1.5,2.6-2.2,1.8-3.3,1.7c-0.5-0.1-1.2-0.4-1.6-1
		c-3.7,6.6-7.5,13.7-10.5,18.5c-4.8,7.5-5.7,9.8-7.1,15c0,0,0,0,0,0c12.4-14.6,24.7-28.6,33.7-37.7c2.3-2.4,4.4-4.4,6.2-6
		C597.4,165,626.2,154.5,652.4,158.9L652.4,158.9z"/>
	<path id="shoe1_x5F_8" class="st1" d="M842.8,223.5c-0.4-1.7-0.9-3.2-1.4-4.4c-2.2-5.3-5.4-7-9.9-8.2c-2.3-0.6-4.9-1.2-7.9-2
		c-10.1-3-64.2-16.5-86-22.9c-21.8-6.4-46.6-14.9-75.1-24.5c-3.3-1.1-6.7-1.9-10.2-2.5c-26.2-4.4-55,6.1-71.3,20.8
		c-1.8,1.6-3.9,3.7-6.2,6c16.8-2.8,53.8,0,80.9,4.7c4.1,0.7,8,1.5,11.6,2.3c27,6,164.2,44.7,179.7,48.8
		C845.8,235.4,844.4,230.4,842.8,223.5z"/>
	<linearGradient id="shoe1_x5F_7_1_" gradientUnits="userSpaceOnUse" x1="498.1545" y1="265.6355" x2="850.4595" y2="265.6355">
		<stop  offset="0" style="stop-color:#FFFFFF"/>
		<stop  offset="0.4771" style="stop-color:#FCFCFC"/>
		<stop  offset="0.7609" style="stop-color:#F4F4F4"/>
		<stop  offset="0.9938" style="stop-color:#E6E6E6"/>
		<stop  offset="1" style="stop-color:#E6E6E6"/>
	</linearGradient>
	<path id="shoe1_x5F_7" class="st8" d="M847.2,241.6c-15.5-4.1-152.7-42.8-179.7-48.8c-3.6-0.8-7.5-1.6-11.6-2.3l0,0
		c-0.1,0-0.2,0-0.3-0.1c-1.5-0.3-3-0.5-4.6-0.8c-0.2,0-0.4-0.1-0.6-0.1c-1.6-0.3-3.2-0.5-4.9-0.7c-0.1,0-0.2,0-0.3,0
		c-0.8-0.1-1.6-0.2-2.4-0.3c-0.2,0-0.4-0.1-0.5-0.1c-0.8-0.1-1.5-0.2-2.3-0.3c-0.2,0-0.4-0.1-0.6-0.1c-0.8-0.1-1.5-0.2-2.3-0.3
		c-0.2,0-0.3,0-0.5-0.1c-3.5-0.4-7-0.8-10.5-1.2c-0.2,0-0.4,0-0.6-0.1c-0.7-0.1-1.4-0.1-2.1-0.2c-0.3,0-0.7-0.1-1-0.1
		c-0.6-0.1-1.3-0.1-1.9-0.2c-0.4,0-0.7-0.1-1.1-0.1c-0.6-0.1-1.2-0.1-1.9-0.1c-0.4,0-0.8-0.1-1.2-0.1c-0.6,0-1.2-0.1-1.8-0.1
		c-0.4,0-0.8-0.1-1.2-0.1c-0.6,0-1.2-0.1-1.8-0.1c-0.4,0-0.8,0-1.2-0.1c-1-0.1-2-0.1-3-0.2c-0.5,0-1-0.1-1.5-0.1
		c-0.5,0-0.9,0-1.4-0.1c-0.5,0-1,0-1.5-0.1c-0.5,0-0.9,0-1.4,0c-0.5,0-1,0-1.5,0c-0.4,0-0.9,0-1.3,0c-0.5,0-1,0-1.5,0
		c-0.4,0-0.8,0-1.2,0c-0.5,0-1,0-1.6,0c-0.4,0-0.7,0-1.1,0c-0.6,0-1.2,0-1.8,0c-0.3,0-0.5,0-0.8,0c-0.8,0-1.7,0-2.5,0
		c-0.2,0-0.5,0-0.7,0c-0.6,0-1.1,0-1.7,0.1c-0.3,0-0.6,0-0.9,0c-0.5,0-1,0-1.4,0.1c-0.3,0-0.6,0-0.9,0.1c-0.4,0-0.9,0.1-1.3,0.1
		c-0.3,0-0.6,0-0.9,0.1c-0.4,0-0.9,0.1-1.3,0.1c-0.3,0-0.5,0-0.8,0.1c-0.4,0-0.9,0.1-1.3,0.1c-0.2,0-0.4,0-0.6,0.1
		c-0.6,0.1-1.2,0.2-1.8,0.3c-8.9,9.1-21.3,23.2-33.7,37.7c-17.2,20.2-34.5,41.3-43.1,52c10.6,11.2,28.1,28.9,48.8,44.8
		c31.2,24,76.2,28.2,110.4,25.5c34.2-2.6,85.2-22.9,117.5-33c28-8.8,60.6-24.7,72.9-30.7c0.8-6.8,1.9-13.6,2.8-20.3
		C849.4,252.9,848.3,246.8,847.2,241.6z"/>
	<path id="shoe1_x5F_6" class="st7" d="M858.2,210.4c4.5-5.3,9-10.5,7.1-17.6c-1.9-7.1-6-10.5-16.7-13l0,0
		c3.6,9.5,7.3,21.7,8.8,31.3C857.7,210.9,858,210.7,858.2,210.4z"/>
	<path id="shoe1_x5F_5" class="st5" d="M858.2,217.9c0-2-0.3-4.4-0.7-6.8c-1.5-9.6-5.3-21.8-8.8-31.3c-2.5-6.5-4.8-11.8-6.3-14
		c-4.2-6.4-14.6-6-10.1,3.8c4.5,9.8,13.1,33.4,18,51.4c3.3,12.3,2.1,26.4,0.2,41c-0.9,6.7-1.9,13.5-2.8,20.3c1.9-0.9,3.2-1.6,4.1-2
		c1.8-0.8,3.3-1.4,4.6-1.8c0,0,0,0,0,0C855,265.8,858.6,233.3,858.2,217.9z"/>
	<path id="shoe1_x5F_4" class="st7" d="M875.8,343.6c-4.9-25.2-11.3-51.1-12.8-58.9c-1.1-5.7-3.2-7.1-6.6-6.3
		c-1.1,0.3-2.3,0.7-3.7,1.3c-0.3,0.1-0.6,0.3-0.9,0.4c-0.8,0.4-2.2,1.1-4.1,2c-12.3,6-44.8,21.9-72.9,30.7
		c-32.3,10.1-83.3,30.4-117.5,33c-34.2,2.6-79.2-1.5-110.4-25.5c-20.7-16-38.3-33.6-48.8-44.8c-5.3-5.7-8.9-9.7-10.1-11.1
		c0-0.1-0.1-0.1-0.2-0.1c4.8,9.7,13.3,27.3,19.9,41.1c11,22.9,42.8,92.6,34.1,113.8c-2.3,5.5-6.5,9-11.7,10.8
		c-11.1,3.8-26.2-0.6-34.5-10.8c-12.1-14.9-36.9-45.6-46.5-60.3c-5.7-8.7-17.5-28.1-26.7-43.2c-3.1-5.1-5.9-9.8-8.1-13.3
		c-0.1,4.3,0.4,9.7,2.6,14.3c4.5,9.4,25.5,44.7,33.4,69.5c7.9,24.8,20.3,70.2,47.7,100.6c9.7-1.2,28-3.9,50.2-7.3
		c50.6-7.6,121.7-18.8,159.4-24.5c20.4-17.5,41.5-43.7,71.5-61.7c30-18,71.7-35.7,97.1-46.2C876.2,345.9,876,344.7,875.8,343.6z"/>
	<linearGradient id="shoe1_x5F_3_1_" gradientUnits="userSpaceOnUse" x1="707.7934" y1="400.9558" x2="887.4849" y2="400.9558">
		<stop  offset="0" style="stop-color:#FFFFFF"/>
		<stop  offset="0.4771" style="stop-color:#FCFCFC"/>
		<stop  offset="0.7609" style="stop-color:#F4F4F4"/>
		<stop  offset="0.9938" style="stop-color:#E6E6E6"/>
		<stop  offset="1" style="stop-color:#E6E6E6"/>
	</linearGradient>
	<path id="shoe1_x5F_3" class="st9" d="M731.8,451.5c44.1-5.8,139.6-15,147.2-15.8c8.1-0.9,8.6-3,8.4-4.9
		c-1.1-30.2-6.3-59.3-11-83.8c-25.4,10.6-67.1,28.2-97.1,46.2c-30,18-51.1,44.3-71.5,61.7c6.6-1,12.1-1.8,16.4-2.4
		C726.5,452.2,729.1,451.8,731.8,451.5z"/>
	<linearGradient id="shoe1_x5F_2_1_" gradientUnits="userSpaceOnUse" x1="608.9803" y1="492.2577" x2="896.7343" y2="492.2577">
		<stop  offset="0" style="stop-color:#FFFFFF"/>
		<stop  offset="0.4771" style="stop-color:#FCFCFC"/>
		<stop  offset="0.7609" style="stop-color:#F4F4F4"/>
		<stop  offset="0.9938" style="stop-color:#E6E6E6"/>
		<stop  offset="1" style="stop-color:#E6E6E6"/>
	</linearGradient>
	<path id="shoe1_x5F_2" class="st10" d="M896.6,445.9c-0.2-7.3-4.5-12.2-5.8-13.9c-1.3-1.7-2.4-3.2-3.4-1.3c0.2,1.9-0.4,3.9-8.4,4.9
		c-7.6,0.9-103.1,10.1-147.2,15.8c-2.8,0.4-5.4,0.7-7.7,1c-4.2,0.6-9.8,1.4-16.4,2.4c-11.4,9.8-28.7,24.5-45.2,38.6
		c-21.3,18.2-41.5,35.3-46.6,39.7c-8.2,7.1-9.2,15.8-3.4,19.6c1.9,1.2,4.5,1.9,7.9,1.8c13.5-0.4,172.7-18.8,194.1-21
		c21.4-2.3,63.6-10.1,78.6-13.1c1.4-1.4,3.5-5.8,3.5-11.1c0-3.4,0.1-25.9,0.1-43.3C896.7,456.5,896.7,448.5,896.6,445.9z"/>
	<path id="shoe1_x5F_1" class="st1" d="M620.5,554.6c-3.4,0.1-6-0.6-7.9-1.8c-5.3,6.8-10.1,14.2-20.1,16.7l0,0
		c4.9,2.9,10.9,5.2,20.1,6.1c17.6,1.9,113.8,8.6,158.8,7.1c45-1.5,84.5-10.1,103.6-22.9s22.9-31.3,21-35.3c-0.9-2-1.5-2.6-2.9-4.1
		c-14.9,3-57.2,10.9-78.6,13.1C793.2,535.9,634.1,554.3,620.5,554.6z"/>
</g>
</svg>
